<?xml version="1.0" encoding="utf-8"?>
<!-- Generator: Adobe Illustrator 22.0.1, SVG Export Plug-In . SVG Version: 6.00 Build 0)  -->
<svg version="1.1" id="Layer_1" xmlns="http://www.w3.org/2000/svg" xmlns:xlink="http://www.w3.org/1999/xlink" x="0px" y="0px"
	 viewBox="0 0 30 30" style="enable-background:new 0 0 30 30;" xml:space="preserve">
<path d="m 14.300781,7.8066406 c -1.323318,0 -2.479374,0.404524 -3.5,1.2285156 C 9.7763305,9.8622363 9.1265342,10.887625 8.8359375,12.171875 a 0.41641036,0.41641036 0 0 1 -0.3144531,0.314453 c -1.0228245,0.230366 -1.8401926,0.74946 -2.5078125,1.583984 -0.6664084,0.833012 -0.9882813,1.747461 -0.9882813,2.810547 0,1.24256 0.4196008,2.268259 1.28125,3.148438 a 0.41641036,0.41641036 0 0 1 0.00195,0.002 c 0.8638875,0.891756 1.875824,1.346585 3.1210937,1.402344 H 20.605469 c 0.802858,-0.02768 1.536218,-0.243939 2.205078,-0.65625 0.673013,-0.414871 1.199532,-0.960381 1.585937,-1.650391 0.385873,-0.689058 0.578125,-1.432605 0.578125,-2.246094 0,-0.829087 -0.206872,-1.569505 -0.613281,-2.271484 -0.40401,-0.697836 -0.957792,-1.241539 -1.65625,-1.636719 -0.699487,-0.395762 -1.452527,-0.595703 -2.285156,-0.595703 H 20.089844 A 0.41641036,0.41641036 0 0 1 19.685547,12.058594 C 19.385424,10.80183 18.743779,9.7940223 17.732422,8.9980469 16.71956,8.2008869 15.594431,7.8066406 14.300781,7.8066406 Z m 0,0.8574219 c 1.184125,0 2.249641,0.4153615 3.136719,1.2050781 0.889388,0.7917714 1.417376,1.8127134 1.537109,2.9882814 l 0.04687,0.376953 h 1.378907 c 0.998381,0 1.895378,0.371267 2.613281,1.078125 0.716133,0.705115 1.101562,1.584735 1.101562,2.568359 0,0.956881 -0.348909,1.837125 -1.02539,2.546875 -0.663013,0.705686 -1.510722,1.113553 -2.470703,1.158204 a 0.41641036,0.41641036 0 0 1 -0.01953,0 H 9.4101562 a 0.41641036,0.41641036 0 0 1 -0.023437,0 C 8.4313774,20.530394 7.5809605,20.135056 6.9160156,19.425781 6.2524675,18.717997 5.9042969,17.846701 5.9042969,16.880859 c 0,-0.926854 0.3369428,-1.763825 0.9589843,-2.441406 0.621593,-0.677092 1.4277908,-1.092454 2.3574219,-1.203125 a 0.41641036,0.41641036 0 0 1 0.048828,-0.002 h 0.34375 l 0.052734,-0.373047 C 9.774822,11.686219 10.290121,10.664001 11.169922,9.8710938 12.04058,9.0775137 13.11759,8.6640625 14.300781,8.6640625 Z" />
</svg>
