<?xml version="1.0" encoding="utf-8"?>
<!-- Generator: Adobe Illustrator 22.0.1, SVG Export Plug-In . SVG Version: 6.00 Build 0)  -->
<svg version="1.1" id="Layer_1" xmlns="http://www.w3.org/2000/svg" xmlns:xlink="http://www.w3.org/1999/xlink" x="0px" y="0px"
	 viewBox="0 0 30 30" style="enable-background:new 0 0 30 30;" xml:space="preserve">
<path d="m 15.330078,1.734375 c -0.149279,0 -0.222582,0.030563 -0.322266,0.125 -0.100712,0.095412 -0.123046,0.1499095 -0.123046,0.2714844 v 2.3398437 c 0,0.1367018 0.03444,0.2238911 0.132812,0.3222657 0.104849,0.1048487 0.175798,0.1328124 0.3125,0.1328124 0.151463,0 0.217262,-0.027809 0.322266,-0.1328124 0.105003,-0.1050037 0.132812,-0.170802 0.132812,-0.3222657 V 2.1308594 c 0,-0.1215763 -0.02233,-0.1760728 -0.123047,-0.2714844 -0.09984,-0.094587 -0.16844,-0.125 -0.332031,-0.125 z M 7.3496094,5.0058594 c -0.1663744,0 -0.2152694,0.025866 -0.28125,0.099609 -0.083133,0.092913 -0.1132813,0.1655457 -0.1132813,0.34375 0,0.1657779 0.039496,0.232026 0.091797,0.28125 A 0.53448162,0.53448162 0 0 1 7.0664062,5.75 l 1.5644532,1.6445312 c 0.1544118,0.1133971 0.2692595,0.1523438 0.3632812,0.1523438 0.087962,0 0.2007738,-0.046427 0.3398438,-0.1425781 0.07717,-0.083615 0.1113281,-0.1459427 0.1113281,-0.2949219 0,-0.1477682 -0.025742,-0.2164989 -0.1308594,-0.328125 L 7.6914062,5.15625 C 7.5638267,5.0408208 7.4584313,5.0058594 7.3496094,5.0058594 Z m 15.9101566,0.00977 c -0.124252,0 -0.199337,0.027461 -0.302735,0.1308594 a 0.53448162,0.53448162 0 0 1 0,0.00195 l -1.640625,1.6308594 c -0.08106,0.081423 -0.111328,0.1453915 -0.111328,0.3105469 0,0.15969 0.03681,0.2478266 0.125,0.3496093 0.07712,0.073718 0.144199,0.1054688 0.289063,0.1054688 0.150998,0 0.22274,-0.031773 0.302734,-0.1113281 l 1.689453,-1.6914063 a 0.53448162,0.53448162 0 0 1 0.01172,-0.011719 c 0.07003,-0.066137 0.0918,-0.1027481 0.0918,-0.28125 0,-0.1539489 -0.02838,-0.2129458 -0.121094,-0.3007813 C 23.489628,5.049796 23.413415,5.0156249 23.259766,5.015625 Z m -7.939454,2.9394531 c -1.001565,0 -1.908034,0.2432773 -2.748046,0.7363281 -0.845418,0.4962231 -1.507308,1.155752 -1.992188,1.9882818 -0.483119,0.839506 -0.7148436,1.735819 -0.7148436,2.740234 v 0.339844 a 0.53448162,0.53448162 0 0 1 -0.2695313,0.464843 c -0.8939877,0.509573 -1.4477477,1.20611 -1.7324219,2.175782 a 0.53448162,0.53448162 0 0 1 -0.3535156,0.359375 c -0.6665521,0.21049 -1.1563692,0.554762 -1.5410156,1.076172 -0.3856491,0.522768 -0.5742187,1.098353 -0.5742188,1.773437 0,0.841243 0.2794443,1.521632 0.9023438,2.144531 0.6246321,0.624632 1.2908527,0.900391 2.1328125,0.900391 h 6.8593745 c 0.841874,0 1.50752,-0.278094 2.109376,-0.888672 0.603336,-0.61208 0.886718,-1.292575 0.886718,-2.15625 0,-0.427346 -0.06311,-0.765983 -0.169922,-1.025391 a 0.53448162,0.53448162 0 0 1 0.207032,-0.654296 c 0.755676,-0.482541 1.349828,-1.12052 1.789062,-1.925782 0.440012,-0.806688 0.664063,-1.662339 0.664063,-2.583984 0,-0.739416 -0.144021,-1.443033 -0.435547,-2.117188 C 20.044391,10.6195 19.653713,10.036525 19.173828,9.5566406 18.693943,9.0767558 18.110969,8.6860778 17.427734,8.390625 16.752008,8.0984189 16.059729,7.9550781 15.320312,7.9550781 Z m 0,0.8496094 c 1.238216,0 2.351582,0.4693452 3.220704,1.3496095 0.871202,0.882372 1.324218,2.012684 1.324218,3.265625 0,0.786407 -0.196172,1.535412 -0.580078,2.21289 -0.381703,0.673596 -0.909697,1.224722 -1.558594,1.638672 a 0.53448162,0.53448162 0 0 1 -0.628906,-0.04102 C 16.596648,16.814377 16.057426,16.625 15.410156,16.625 a 0.53448162,0.53448162 0 0 1 -0.507812,-0.367188 c -0.256431,-0.778134 -0.697797,-1.362134 -1.34375,-1.822265 -0.642744,-0.457845 -1.348386,-0.679688 -2.167969,-0.679688 h -0.130859 a 0.53448162,0.53448162 0 0 1 -0.533204,-0.570312 c 0.07752,-1.207099 0.563299,-2.274431 1.431641,-3.109375 0.860751,-0.8272162 1.956389,-1.2714846 3.162109,-1.2714845 z M 4.0898438,12.974609 c -0.1778931,0 -0.2528343,0.03213 -0.34375,0.123047 a 0.53448162,0.53448162 0 0 1 -0.021484,0.02149 c -0.066528,0.05952 -0.099609,0.116596 -0.099609,0.310547 0,0.152164 0.018412,0.193224 0.1113281,0.28125 0.08363,0.07923 0.1615137,0.113281 0.3535157,0.113281 h 1.6894531 c 0.151857,0 0.2272643,-0.0312 0.3242187,-0.123047 0.099385,-0.09415 0.1210938,-0.147234 0.1210938,-0.271484 0,-0.180293 -0.032088,-0.245244 -0.1113282,-0.320313 -0.1053619,-0.09982 -0.1878257,-0.134766 -0.3242187,-0.134766 z m 20.1699222,0 c -0.177893,0 -0.252835,0.03213 -0.34375,0.123047 a 0.53448162,0.53448162 0 0 1 -0.02148,0.02149 c -0.07331,0.06559 -0.109375,0.128193 -0.109375,0.310547 0,0.152164 0.01841,0.193224 0.111328,0.28125 0.08363,0.07923 0.161514,0.113281 0.353516,0.113281 h 1.689453 c 0.151857,0 0.227264,-0.03119 0.324219,-0.123047 0.09939,-0.09415 0.121094,-0.147235 0.121094,-0.271484 0,-0.180293 -0.03209,-0.245243 -0.111328,-0.320313 -0.105362,-0.09982 -0.187826,-0.134766 -0.324219,-0.134766 z m -12.878907,1.621094 c 0.695845,0 1.356825,0.244139 1.871094,0.720703 0.51388,0.466952 0.835691,1.083649 0.919922,1.769532 l 0.05078,0.408203 h 1.056641 c 0.563154,0 1.090178,0.231647 1.492187,0.621093 0.412836,0.399935 0.632813,0.943458 0.632813,1.503907 0,0.575689 -0.225315,1.114954 -0.619141,1.521484 -0.400174,0.413084 -0.942899,0.644531 -1.505859,0.644531 H 8.4296875 c -0.5755718,0 -1.1232372,-0.231705 -1.515625,-0.648437 -0.3987156,-0.413283 -0.609375,-0.95931 -0.609375,-1.527344 0,-0.53061 0.1840495,-1.043041 0.5390625,-1.4375 0.3519678,-0.391075 0.8362171,-0.632173 1.3632812,-0.683594 l 0.375,-0.04883 0.056641,-0.353515 0.00195,-0.0059 c 0.084133,-0.685365 0.3899322,-1.30157 0.8964844,-1.761719 l 0.00195,-0.002 c 6.93e-4,-6.28e-4 0.00126,-0.0013 0.00195,-0.002 0.5079554,-0.469809 1.1528724,-0.71875 1.8398434,-0.71875 z m 10.238282,4.689453 c -0.166077,0 -0.21382,0.02241 -0.302735,0.111328 -0.08192,0.08192 -0.111328,0.150878 -0.111328,0.302735 0,0.150063 0.02981,0.228687 0.128906,0.339843 l 1.621094,1.59961 a 0.53448162,0.53448162 0 0 1 0.002,0.0039 c 0.139496,0.139496 0.215142,0.158203 0.291016,0.158203 0.07074,0 0.20197,-0.04929 0.378906,-0.183593 0.06272,-0.06064 0.08789,-0.09429 0.08789,-0.277344 0,-0.151547 -0.028,-0.212438 -0.113282,-0.302735 l -1.667968,-1.648437 c -0.07445,-0.07032 -0.150019,-0.103516 -0.314453,-0.103516 z" />
</svg>
