<?xml version="1.0" encoding="utf-8"?>
<!-- Generator: Adobe Illustrator 22.0.1, SVG Export Plug-In . SVG Version: 6.00 Build 0)  -->
<svg version="1.1" id="Layer_1" xmlns="http://www.w3.org/2000/svg" xmlns:xlink="http://www.w3.org/1999/xlink" x="0px" y="0px"
	 viewBox="0 0 30 30" style="enable-background:new 0 0 30 30;" xml:space="preserve">
<path d="m 17.759766,1.3222656 c -0.147707,0 -0.211777,0.030206 -0.306641,0.1191406 -0.07064,0.066221 -0.101563,0.1298863 -0.101563,0.2890626 v 2.0488281 c 0,0.1748063 0.03681,0.2500719 0.119141,0.3378906 0.06622,0.070636 0.129886,0.1015625 0.289063,0.1015625 0.171793,0 0.246091,-0.037827 0.332031,-0.1171875 0.07522,-0.076826 0.105469,-0.139143 0.105469,-0.3222656 V 1.7304688 c 0,-0.1479764 -0.02581,-0.2054991 -0.119141,-0.2988282 -0.08159,-0.081592 -0.14595,-0.109375 -0.318359,-0.109375 z m -6.919922,2.8691406 c -0.148245,0 -0.232056,0.032837 -0.328125,0.1289063 a 0.41294004,0.41294004 0 0 1 -0.0078,0.00977 c -0.09105,0.085695 -0.121093,0.1525364 -0.121094,0.3007813 0,0.1479753 0.03657,0.2428038 0.136719,0.3554687 L 11.125,5.5742188 c 0.19939,0.1492965 0.315484,0.1687223 0.339844,0.1660156 a 0.41294004,0.41294004 0 0 1 0.04492,-0.00195 c 0.09234,0 0.146667,-0.021069 0.25,-0.1308593 0.0903,-0.095944 0.128906,-0.1899143 0.128906,-0.3378907 0,-0.1348047 -0.03423,-0.2009258 -0.123047,-0.2792968 a 0.41294004,0.41294004 0 0 1 -0.03516,-0.035156 l -0.5625,-0.6308593 C 11.054325,4.2252268 10.970602,4.1914062 10.839844,4.1914062 Z m 13.890625,0 c -0.147976,0 -0.201227,0.028053 -0.279297,0.1113282 a 0.41294004,0.41294004 0 0 1 -0.01367,0.013672 l -1.435547,1.3964844 c -0.09532,0.122894 -0.128906,0.2127536 -0.128906,0.3574219 0,0.1721266 0.03622,0.2350505 0.09961,0.3085937 0.132115,0.08929 0.248881,0.1386719 0.328125,0.1386719 0.05596,0 0.175295,-0.03559 0.332031,-0.1523437 l 1.378907,-1.3789063 c 0.09928,-0.1116887 0.136719,-0.2055302 0.136719,-0.3671875 0,-0.1479752 -0.03175,-0.2212041 -0.119141,-0.3085937 -0.08725,-0.087247 -0.164853,-0.1191407 -0.298828,-0.1191407 z m -6.970703,2.5800782 c -1.372082,0 -2.532912,0.5189453 -3.580078,1.6132812 a 0.41294004,0.41294004 0 0 1 -0.503907,0.074219 C 12.974759,8.0584005 12.15085,7.8515625 11.179688,7.8515625 c -1.3239957,0 -2.4579584,0.4048806 -3.4707036,1.2207031 -1.013114,0.8161195 -1.6563384,1.8425884 -1.9375,3.1171874 a 0.41294004,0.41294004 0 0 1 -0.3085938,0.3125 c -1.0383074,0.241036 -1.8513191,0.75181 -2.5078125,1.583985 -0.6580864,0.834194 -0.9824218,1.750698 -0.9824219,2.814453 0,0.832665 0.2008755,1.58436 0.6054688,2.283203 0.4057306,0.700807 0.9476301,1.242707 1.6484375,1.648437 0.7001384,0.405344 1.4417634,0.605469 2.2636719,0.605469 H 17.320312 c 0.82191,0 1.574627,-0.200894 2.273438,-0.605469 0.702135,-0.406499 1.2538,-0.949923 1.658203,-1.648437 0.405921,-0.701136 0.615235,-1.453525 0.615235,-2.283203 0,-0.601643 -0.127564,-1.215049 -0.388672,-1.839844 a 0.41294004,0.41294004 0 0 1 0.0625,-0.423828 c 0.69918,-0.846376 1.046875,-1.849608 1.046875,-3.03711 0,-0.655661 -0.128569,-1.278193 -0.378907,-1.880859 -0.249119,-0.5997319 -0.594659,-1.1024723 -1.029296,-1.5371094 -0.435042,-0.4350413 -0.938029,-0.782401 -1.53711,-1.03125 a 0.41294004,0.41294004 0 0 1 -0.0059,-0.00195 C 19.040259,6.8915012 18.419304,6.7714844 17.759766,6.7714844 Z m 0,0.8769531 c 1.08434,0 2.049991,0.389835 2.810546,1.1503906 0.757526,0.7575254 1.16211,1.7131829 1.16211,2.8007809 0,0.695372 -0.19143,1.388139 -0.5625,2.042969 a 0.41294004,0.41294004 0 0 1 -0.650391,0.08984 c -0.90185,-0.892553 -1.93626,-1.320313 -3.199219,-1.320313 H 17 A 0.41294004,0.41294004 0 0 1 16.597656,12.091797 C 16.365613,11.08009 15.851569,10.176098 15.019531,9.3535156 a 0.41294004,0.41294004 0 0 1 0.0039,-0.5898437 C 15.782007,8.0270896 16.72313,7.6484375 17.759766,7.6484375 Z m -6.570313,1.0585937 c 1.192981,0 2.269539,0.4149375 3.148438,1.2070313 0.887502,0.7909975 1.394706,1.8051235 1.503906,2.9746095 1.21e-4,0.0013 -1.2e-4,0.0026 0,0.0039 l 0.04492,0.375 h 1.433593 c 0.98039,0 1.863654,0.375372 2.570313,1.082031 0.705174,0.705174 1.082031,1.580157 1.082031,2.560547 0,1.007152 -0.371378,1.901331 -1.068359,2.609375 -0.699769,0.710876 -1.59444,1.082031 -2.574219,1.082031 H 6.4902344 c -0.9797057,0 -1.8587244,-0.375041 -2.5644532,-1.091796 a 0.41294004,0.41294004 0 0 1 -0.00195,-0.002 C 3.2291736,18.791105 2.857422,17.898621 2.8574219,16.900391 c 0,-0.931704 0.3241595,-1.770479 0.9472656,-2.449219 0.6228877,-0.678503 1.4317454,-1.081207 2.3574219,-1.191406 a 0.41294004,0.41294004 0 0 1 0.025391,-0.002 l 0.3242188,-0.01953 0.048828,-0.371093 C 6.7119001,11.699605 7.2368184,10.686081 8.1054688,9.9042969 8.9736788,9.1129397 10.027305,8.7070312 11.189453,8.7070312 Z m 14.400391,2.4550778 c -0.148245,0 -0.216699,0.02725 -0.31836,0.128907 a 0.41294004,0.41294004 0 0 1 -0.0078,0.0098 c -0.106972,0.10103 -0.13086,0.164293 -0.13086,0.298828 0,0.122568 0.02688,0.181436 0.13086,0.279297 a 0.41294004,0.41294004 0 0 1 0.0078,0.0098 c 0.08145,0.08145 0.170383,0.11914 0.31836,0.11914 h 2.041015 c 0.133694,0 0.202157,-0.03034 0.296875,-0.11914 0.06941,-0.06507 0.09961,-0.127645 0.09961,-0.289063 0,-0.149948 -0.03521,-0.228963 -0.117188,-0.316406 -0.07754,-0.08271 -0.157009,-0.121094 -0.279297,-0.121094 z m -1.480469,6.320313 c -0.147975,0 -0.221204,0.03175 -0.308594,0.11914 a 0.41294004,0.41294004 0 0 1 -0.0078,0.0098 c -0.09802,0.09225 -0.13086,0.161785 -0.13086,0.298828 0,0.148245 0.03377,0.234633 0.138672,0.345703 l 0.636719,0.617188 a 0.41294004,0.41294004 0 0 1 0.01367,0.01367 c 0.07807,0.08328 0.13132,0.111328 0.279297,0.111328 0.148244,0 0.211984,-0.02882 0.298828,-0.121094 0.09584,-0.101828 0.128906,-0.176233 0.128906,-0.337891 0,-0.119609 -0.03085,-0.198819 -0.119141,-0.287109 l -0.65039,-0.650391 c -0.09305,-0.09305 -0.159688,-0.11914 -0.279297,-0.11914 z" />
</svg>
