<?xml version="1.0" encoding="utf-8"?>
<!-- Generator: Adobe Illustrator 22.0.1, SVG Export Plug-In . SVG Version: 6.00 Build 0)  -->
<svg version="1.1" id="Layer_1" xmlns="http://www.w3.org/2000/svg" xmlns:xlink="http://www.w3.org/1999/xlink" x="0px" y="0px"
	 viewBox="0 0 30 30" style="enable-background:new 0 0 30 30;" xml:space="preserve">
<path d="m 15,4.4140625 c -0.136675,0 -0.20938,0.031646 -0.316406,0.1386719 -0.101281,0.1012805 -0.128907,0.1727289 -0.128906,0.3066406 v 2.0410156 c 0,0.1101707 0.04033,0.1943082 0.128906,0.2773438 0.08221,0.07707 0.183057,0.1191406 0.316406,0.1191406 0.14536,0 0.220073,-0.026521 0.316406,-0.1171875 0.09797,-0.09221 0.119141,-0.1453852 0.119141,-0.2792969 V 4.8496094 c 0,-0.1339117 -0.02763,-0.2053601 -0.128906,-0.3066406 C 15.199615,4.4359427 15.147915,4.4140625 15,4.4140625 Z M 8.0996094,7.2636719 c -0.120471,0 -0.2148905,0.044575 -0.3339844,0.1367187 -0.077796,0.1030252 -0.1210938,0.1907547 -0.1210938,0.3105469 0,0.1476457 0.037973,0.235239 0.1191407,0.3164063 L 9.21875,9.453125 a 0.41442232,0.41442232 0 0 1 0.013672,0.013672 c 0.071674,0.076453 0.1394638,0.109375 0.2871093,0.109375 0.1476456,0 0.2195114,-0.032012 0.3066407,-0.1191407 0.087128,-0.087128 0.1191406,-0.1589946 0.1191406,-0.3066406 0,-0.147646 -0.032922,-0.2154352 -0.109375,-0.2871094 A 0.41442232,0.41442232 0 0 1 9.8222656,8.8496094 L 8.4023438,7.3886719 c -0.1005203,-0.093361 -0.1850499,-0.125 -0.3027344,-0.125 z m 13.8007816,0.00977 c -0.117685,0 -0.202215,0.031639 -0.302735,0.125 l -1.408203,1.4589844 a 0.41442232,0.41442232 0 0 1 -0.01563,0.015625 c -0.06024,0.056226 -0.09961,0.1260289 -0.09961,0.2871093 0,0.1473757 0.03618,0.2279138 0.11914,0.3164063 0.08503,0.090698 0.12223,0.109375 0.25586,0.109375 0.119249,0 0.209566,-0.033069 0.326172,-0.1367187 l 1.441406,-1.4121094 c 0.08131,-0.08131 0.119141,-0.1648317 0.119141,-0.3261719 0,-0.1339117 -0.02875,-0.2084353 -0.128907,-0.3085937 a 0.41442232,0.41442232 0 0 1 -0.0078,-0.00977 C 22.112637,7.3005853 22.048306,7.2734375 21.900391,7.2734375 Z m -6.910157,2.5507813 c -0.861911,0 -1.642068,0.2090502 -2.392578,0.6445312 -0.749419,0.434848 -1.322803,1.016 -1.759765,1.759766 -0.433626,0.738086 -0.644532,1.529294 -0.644532,2.390625 0,0.866053 0.218282,1.659684 0.634766,2.412109 4.79e-4,8.15e-4 0.0015,0.0011 0.002,0.002 0.436259,0.741691 1.006672,1.314442 1.748047,1.75 0.73743,0.43324 1.529708,0.642578 2.402344,0.642578 0.872635,0 1.662706,-0.209188 2.40039,-0.642578 0.742444,-0.436185 1.315768,-1.009509 1.751953,-1.751953 0.43339,-0.737684 0.642579,-1.527755 0.642579,-2.400391 0,-0.644687 -0.12794,-1.271074 -0.376953,-1.861328 -0.250448,-0.593653 -0.589053,-1.094912 -1.021485,-1.527343 a 0.41442232,0.41442232 0 0 1 -0.0039,-0.0039 C 17.955421,10.811577 17.443388,10.472764 16.845703,10.210938 16.244592,9.9519974 15.635014,9.8242187 14.990234,9.8242188 Z M 15,10.716797 c 1.075711,0 2.031804,0.390463 2.791016,1.138672 a 0.41442232,0.41442232 0 0 1 0.002,0.002 c 0.756485,0.756485 1.160156,1.701271 1.160156,2.761719 0,1.078397 -0.402079,2.034891 -1.160156,2.792968 -0.757801,0.757801 -1.714021,1.16211 -2.792969,1.16211 -1.077996,0 -2.034451,-0.403347 -2.783203,-1.16211 l -0.002,-0.002 c -0.758143,-0.75914 -1.148438,-1.716317 -1.148438,-2.791015 0,-1.05757 0.393039,-2.005588 1.16211,-2.763672 C 12.978729,11.106259 13.934249,10.716797 15,10.716797 Z m -9.7792969,3.457031 c -0.1162219,0 -0.2171914,0.0381 -0.3105469,0.123047 -0.093077,0.0943 -0.1269531,0.176185 -0.1269531,0.322266 0,0.134426 0.033599,0.211333 0.140625,0.318359 0.1012806,0.101281 0.1727288,0.128906 0.3066407,0.128906 h 2.0390624 c 0.1339117,0 0.1978094,-0.02809 0.2695313,-0.109375 0.085354,-0.09673 0.1171875,-0.179274 0.1171875,-0.33789 0,-0.144844 -0.036232,-0.227968 -0.125,-0.330079 -0.087429,-0.09095 -0.1414177,-0.115234 -0.2714844,-0.115234 z m 17.5097659,0 c -0.113374,0 -0.177836,0.03121 -0.263672,0.113281 -0.09664,0.111606 -0.132813,0.189308 -0.132813,0.332032 0,0.147375 0.03049,0.218796 0.126954,0.328125 0.07172,0.08128 0.135619,0.109375 0.269531,0.109375 H 24.75 c 0.133912,0 0.20536,-0.02763 0.306641,-0.128907 0.105769,-0.105769 0.138671,-0.186412 0.138671,-0.308593 0,-0.122182 -0.03178,-0.19975 -0.138671,-0.306641 C 24.94975,14.205609 24.872183,14.173828 24.75,14.173828 Z M 9.5195312,19.693359 c -0.158886,0 -0.2211888,0.02929 -0.2871093,0.09961 a 0.41442232,0.41442232 0 0 1 -0.013672,0.01367 l -1.4414062,1.402343 c -0.096726,0.117266 -0.1328125,0.210011 -0.1328126,0.341797 0,0.124086 0.037755,0.195724 0.1113282,0.275391 0.1338995,0.09682 0.2393433,0.140625 0.328125,0.140625 0.095103,0 0.2048411,-0.03598 0.3535156,-0.150391 l 1.3710938,-1.371094 c 0.093998,-0.105747 0.1367187,-0.217588 0.1367187,-0.365234 0,-0.13363 -0.026533,-0.189913 -0.109375,-0.267578 -0.088493,-0.08296 -0.1690306,-0.119141 -0.3164063,-0.119141 z m 10.9296878,0.0098 c -0.131515,1e-6 -0.182869,0.02175 -0.25586,0.09961 a 0.41442232,0.41442232 0 0 1 -0.01953,0.01953 c -0.06693,0.06247 -0.09961,0.124464 -0.09961,0.257812 0,0.172646 0.03999,0.268429 0.132812,0.38086 9.97e-4,0.0012 9.44e-4,0.0027 0.002,0.0039 l 1.361328,1.359375 c 0.1435,0.10959 0.248712,0.144531 0.339844,0.144531 0.08468,0 0.188152,-0.04116 0.316406,-0.132812 0.07317,-0.07945 0.109376,-0.151609 0.109376,-0.275391 0,-0.131979 -0.03746,-0.229791 -0.125,-0.324219 l -1.44336,-1.414062 c -0.08726,-0.08181 -0.170984,-0.119141 -0.318359,-0.119141 z m -5.458985,2.271484 c -0.13363,0 -0.213945,0.03052 -0.316406,0.126953 -0.09199,0.08658 -0.119141,0.150913 -0.11914,0.298829 v 1.990234 c 0,0.147915 0.0331,0.230368 0.128906,0.326172 a 0.41442232,0.41442232 0 0 1 0.0078,0.0098 c 0.08068,0.08572 0.164917,0.119141 0.298828,0.119141 0.133912,0 0.205361,-0.02763 0.306641,-0.128906 0.0958,-0.0958 0.128906,-0.178257 0.128906,-0.326172 v -1.990234 c 0,-0.147645 -0.03201,-0.219512 -0.11914,-0.306641 -0.08117,-0.08117 -0.168761,-0.119141 -0.316407,-0.119141 z" />
</svg>
