<?xml version="1.0" encoding="utf-8"?>
<!-- Generator: Adobe Illustrator 22.0.1, SVG Export Plug-In . SVG Version: 6.00 Build 0)  -->
<svg version="1.1" id="Layer_1" xmlns="http://www.w3.org/2000/svg" xmlns:xlink="http://www.w3.org/1999/xlink" x="0px" y="0px"
	 viewBox="0 0 30 30" style="enable-background:new 0 0 30 30;" xml:space="preserve">
<path d="m 14.779297,7.828125 c -1.314393,0 -2.44848,0.4036111 -3.472656,1.2304688 C 10.2828,9.8851811 9.650995,10.910088 9.359375,12.189453 A 0.40832952,0.40832952 0 0 1 9.0546875,12.496094 C 8.2709703,12.680498 7.5912792,13.043767 7.0019531,13.605469 6.5083923,14.075894 6.1746589,14.626442 5.9335938,15.242188 H 6.828125 c 0.2677856,-0.544397 0.648653,-1.004557 1.1484375,-1.355469 0.5190516,-0.364441 1.1066517,-0.582095 1.7324219,-0.63086 l 0.00781,-0.002 0.3808591,-0.04687 0.04687,-0.33789 c 0.119038,-1.16873 0.623758,-2.180536 1.503907,-2.962891 0.877909,-0.7803643 1.941175,-1.1835938 3.121093,-1.1835938 1.170318,0 2.223065,0.401592 3.09961,1.1699219 a 0.40832952,0.40832952 0 0 1 0.002,0.00195 c 0.870096,0.7722108 1.386375,1.7830628 1.505859,2.9453128 l 0.05273,0.371094 h 1.410156 c 0.712932,0 1.389325,0.196886 1.984375,0.589843 0.56052,0.370155 0.984571,0.863893 1.27539,1.460938 h 0.933594 C 24.743948,14.467166 24.28064,13.789781 23.574219,13.255859 22.77238,12.657238 21.880827,12.369141 20.849609,12.369141 H 20.529297 A 0.40832952,0.40832952 0 0 1 20.132812,12.058594 C 19.82272,10.808825 19.180359,9.8077947 18.175781,9.0097656 17.171969,8.212345 16.065944,7.828125 14.779297,7.828125 Z m -7.9726564,7.443359 -0.027344,0.04687 c 0.00789,-0.01709 0.021174,-0.02995 0.029297,-0.04687 4.175e-4,-6.34e-4 -0.00239,6.8e-4 -0.00195,0 z m 17.3125004,0.01758 c 0.0087,0.01832 0.0228,0.03225 0.03125,0.05078 l -0.02734,-0.04883 c 0.001,0.0016 -0.0048,-0.0033 -0.0039,-0.002 z M 6.0898438,17.488281 c -0.1487373,0 -0.2273678,0.03791 -0.3007813,0.111328 a 0.40832952,0.40832952 0 0 1 -0.00977,0.0078 c -0.098822,0.09301 -0.1308594,0.164541 -0.1308594,0.302734 0,0.135325 0.028569,0.208257 0.1308594,0.310547 a 0.40832952,0.40832952 0 0 1 0.00781,0.0098 c 0.087661,0.09314 0.153465,0.121093 0.3027344,0.121093 H 24.759766 c 0.134535,0 0.189034,-0.02352 0.28125,-0.121093 0.08395,-0.08954 0.121093,-0.171574 0.121093,-0.320313 0,-0.16008 -0.02313,-0.21258 -0.111328,-0.300781 -0.09393,-0.09393 -0.155969,-0.121094 -0.291015,-0.121094 z M 3.5,20.607422 c -0.1626436,0 -0.2546557,0.0377 -0.3515625,0.128906 -0.085894,0.08084 -0.1210937,0.165184 -0.1210937,0.314453 0,0.131494 0.025126,0.186873 0.1171874,0.275391 0.095899,0.08312 0.1936074,0.125 0.3554688,0.125 h 18.669922 c 0.148915,0 0.224104,-0.02664 0.320312,-0.117188 a 0.40832952,0.40832952 0 0 1 0.0098,-0.0098 c 0.08259,-0.07287 0.111328,-0.138113 0.111328,-0.273438 0,-0.162643 -0.03393,-0.235099 -0.121094,-0.322265 -0.08834,-0.08834 -0.157668,-0.121094 -0.320312,-0.121094 z m 4.3398438,3.089844 c -0.162388,0 -0.236983,0.03776 -0.3105469,0.111328 a 0.40832952,0.40832952 0 0 1 -0.00977,0.0078 c -0.1048597,0.09869 -0.1308593,0.154775 -0.1308593,0.292969 -1e-7,0.123767 0.03928,0.211015 0.1210937,0.283203 a 0.40832952,0.40832952 0 0 1 0.019531,0.01758 c 0.1089248,0.108925 0.1890913,0.142578 0.3105469,0.142578 H 26.519531 c 0.135325,0 0.208257,-0.02857 0.310547,-0.130859 0.101318,-0.101317 0.130859,-0.172996 0.13086,-0.322266 0,-0.134535 -0.02352,-0.189034 -0.121094,-0.28125 -0.08954,-0.08395 -0.171575,-0.121093 -0.320313,-0.121093 z" />
</svg>
