<?xml version="1.0" encoding="utf-8"?>
<!-- Generator: Adobe Illustrator 22.0.1, SVG Export Plug-In . SVG Version: 6.00 Build 0)  -->
<svg version="1.1" id="Layer_1" xmlns="http://www.w3.org/2000/svg" xmlns:xlink="http://www.w3.org/1999/xlink" x="0px" y="0px"
	 viewBox="0 0 30 30" style="enable-background:new 0 0 30 30;" xml:space="preserve">
<path 	d="m 17.210938,7.9902344 c -0.328193,0 -0.657264,0.02751 -0.986329,0.082031 -1.292503,0.2393108 -2.332109,0.8527822 -3.177734,1.8730469 -0.846352,1.0211427 -1.255859,2.1576537 -1.255859,3.5039067 v 0.351562 c -1.3e-4,0.195101 -0.105379,0.374994 -0.275391,0.470703 -0.902616,0.509398 -1.452086,1.201724 -1.7363281,2.169922 -0.050624,0.172719 -0.1838904,0.308915 -0.3554688,0.363282 -0.6561414,0.209965 -1.1571053,0.558407 -1.5390625,1.076171 -0.3865904,0.524045 -0.5742187,1.084301 -0.5742187,1.769532 10e-8,0.834558 0.2890287,1.513258 0.9023437,2.136718 0.6222563,0.622257 1.2969456,0.902344 2.1367184,0.902344 h 6.84961 c 0.839686,0 1.504266,-0.278757 2.105469,-0.888672 0.602701,-0.611437 0.884765,-1.288157 0.884765,-2.15039 0,-0.437832 -0.06373,-0.777261 -0.169922,-1.035157 -0.09891,-0.241646 -0.01097,-0.519453 0.208985,-0.660156 0.599004,-0.381184 1.085794,-0.857306 1.488281,-1.433594 0.01092,-0.01558 0.02266,-0.03058 0.03516,-0.04492 0.0011,-0.0017 0.0028,-0.0022 0.0039,-0.0039 0.274092,-0.42115 0.476684,-0.809469 0.601563,-1.175781 0.0019,-0.0052 0.0039,-0.01045 0.0059,-0.01563 0.07927,-0.211377 0.145897,-0.44296 0.203125,-0.671875 -1.9e-5,-0.0026 -1.9e-5,-0.0052 0,-0.0078 l 0.0957,-0.361328 -0.416015,-0.123046 c -6.67e-4,1e-6 -0.0013,1e-6 -0.002,0 -0.551609,-0.165483 -1.05858,-0.411426 -1.496094,-0.744141 l -0.002,-0.002 c -0.438022,-0.326142 -0.778385,-0.6983 -1.041016,-1.109375 -0.254363,-0.398134 -0.43824,-0.798831 -0.5625,-1.216797 -0.12522,-0.411207 -0.183594,-0.82422 -0.183594,-1.2246097 0,-0.3603701 0.04443,-0.7149386 0.119141,-1.0703125 l 0.002,-0.00781 c 2.71e-4,-0.00128 -2.72e-4,-0.00263 0,-0.00391 L 19.158197,8.3261395 18.54101,8.1347332 c -0.206894,-0.044495 -0.416074,-0.07828 -0.642578,-0.095703 -0.0072,-5.071e-4 -0.01433,-0.00116 -0.02148,-0.00195 -0.2523,-0.029112 -0.462378,-0.046875 -0.636719,-0.046875 z m 0.128906,0.859375 h 0.121094 0.11914 c 0.298895,-2.418e-4 0.541258,0.2421208 0.541016,0.5410156 v 0.3496094 c 0,1.0014406 0.267456,1.9262496 0.804687,2.8339846 0.529262,0.894271 1.252605,1.563802 2.207031,2.041015 0.259836,0.130163 0.370264,0.442469 0.25,0.707032 -0.371286,0.82133 -0.96164,1.502334 -1.738281,1.986328 -0.197156,0.122037 -0.450181,0.104749 -0.628906,-0.04297 -0.488122,-0.403963 -1.027279,-0.59375 -1.685547,-0.59375 -0.233377,1.51e-4 -0.440503,-0.149484 -0.513672,-0.371094 -0.256026,-0.776906 -0.697918,-1.373189 -1.33789,-1.830078 l -0.0039,-0.002 C 14.81993,14.009719 14.128728,13.791016 13.300781,13.791016 h -0.121093 c -0.31492,4.4e-5 -0.563212,-0.268039 -0.539063,-0.582032 0.07736,-0.99465 0.420898,-1.903692 1.039063,-2.667968 0.638269,-0.6796061 1.056154,-0.9552508 1.666015,-1.2539066 0.63677,-0.2904563 1.308129,-0.4375 1.994141,-0.4375 z m -4.029297,5.7792966 c 0.704307,0 1.35201,0.261523 1.867187,0.716797 0.521154,0.460554 0.84559,1.082486 0.929688,1.779297 l 0.04883,0.394531 h 1.042969 c 0.554656,0 1.103974,0.21393 1.509765,0.632813 0.391144,0.40376 0.621094,0.935011 0.621094,1.498047 0,0.561822 -0.215412,1.109944 -0.626953,1.521484 -0.403856,0.403858 -0.93943,0.638672 -1.503906,0.638672 h -6.84961 c -0.569115,0 -1.1225303,-0.214941 -1.5273434,-0.632813 -0.3979397,-0.410776 -0.6132812,-0.956476 -0.6132812,-1.527343 0,-0.540251 0.1978535,-1.045185 0.5371094,-1.447266 0.00383,-0.0046 0.00774,-0.0092 0.011719,-0.01367 0.3521225,-0.391247 0.8390483,-0.635784 1.3691402,-0.6875 h -0.01367 l 0.390625,-0.04883 0.05859,-0.330078 0.002,-0.0039 c 0.08457,-0.680512 0.393038,-1.296326 0.898438,-1.765625 0.509588,-0.473189 1.15749,-0.72461 1.847656,-0.72461 z"/>
</svg>
