<?xml version="1.0" encoding="utf-8"?>
<!-- Generator: Adobe Illustrator 22.0.1, SVG Export Plug-In . SVG Version: 6.00 Build 0)  -->
<svg version="1.1" id="Layer_1" xmlns="http://www.w3.org/2000/svg" xmlns:xlink="http://www.w3.org/1999/xlink" x="0px" y="0px"
	 viewBox="0 0 30 30" style="enable-background:new 0 0 30 30;" xml:space="preserve">
<path d="m 15,7.8066406 c -0.893643,0 -1.752291,0.1757498 -2.580078,0.5332032 C 11.585785,8.7000391 10.871684,9.181051 10.28125,9.7714844 9.6895332,10.363201 9.2125872,11.065703 8.8632812,11.896484 8.513714,12.727888 8.3359375,13.576886 8.3359375,14.480469 c 0,0.913955 0.1784243,1.7757 0.5097656,2.609375 2.333e-4,5.87e-4 -2.334e-4,0.0014 0,0.002 0.3504664,0.821449 0.8177026,1.530593 1.4042969,2.117187 0.591406,0.591406 1.295963,1.068576 2.126953,1.417969 0.829349,0.348704 1.699117,0.527344 2.613281,0.527344 1.208221,0 2.316128,-0.298529 3.332032,-0.890625 l 0.002,-0.002 c 1.02819,-0.604241 1.820937,-1.405967 2.416015,-2.435547 0.593095,-1.026148 0.882495,-2.132622 0.873047,-3.341797 a 0.42639925,0.42639925 0 0 1 0,-0.0039 V 13.679688 L 20.960938,13.625 c -1.34841,-0.05442 -2.528439,-0.589952 -3.47461,-1.546875 C 16.536051,11.117049 16.037062,9.9155035 15.994141,8.5527344 L 15.951172,7.8066406 Z M 14.792969,8.59375 a 0.42639925,0.42639925 0 0 1 0.451172,0.3808594 c 0.141097,1.3545386 0.66456,2.4973896 1.58789,3.4960936 0.914919,0.989606 2.135062,1.645252 3.695313,1.970703 a 0.42639925,0.42639925 0 0 1 0.333984,0.478516 c -0.116776,0.806818 -0.363424,1.553246 -0.761719,2.242187 -0.391615,0.677389 -0.856151,1.242507 -1.412109,1.689453 -0.542066,0.435779 -1.132222,0.779233 -1.763672,1.025391 -0.636783,0.248238 -1.280232,0.369141 -1.914062,0.369141 -0.713516,0 -1.420087,-0.141602 -2.09961,-0.431641 -0.6869,-0.279054 -1.293192,-0.669215 -1.820312,-1.164062 -0.53325,-0.500602 -0.967901,-1.118677 -1.2890628,-1.835938 a 0.42639925,0.42639925 0 0 1 -0.00195,-0.002 c -0.323797,-0.73394 -0.484375,-1.516224 -0.484375,-2.332031 0,-0.960386 0.2407311,-1.883487 0.6992189,-2.757813 0.462729,-0.882413 1.124484,-1.610075 1.957031,-2.175781 a 0.42639925,0.42639925 0 0 1 0.002,0 C 12.821519,8.977384 13.763163,8.658113 14.792969,8.59375 Z" />
</svg>
