<?xml version="1.0" encoding="utf-8"?>
<!-- Generator: Adobe Illustrator 22.0.1, SVG Export Plug-In . SVG Version: 6.00 Build 0)  -->
<svg version="1.1" id="Layer_1" xmlns="http://www.w3.org/2000/svg" xmlns:xlink="http://www.w3.org/1999/xlink" x="0px" y="0px"
	 viewBox="0 0 30 30" style="enable-background:new 0 0 30 30;" xml:space="preserve">
<path	d="m 20.609375,5.7519531 c -0.330281,0 -0.680368,0.038453 -1.029297,0.1210938 -0.351115,0.083159 -0.727132,0.2136351 -1.107422,0.3847656 -0.353534,0.1590906 -0.713076,0.4049769 -1.070312,0.7246094 -0.347136,0.3105949 -0.652069,0.6891306 -0.914063,1.1289062 -0.100727,0.1692061 -0.311173,0.2376845 -0.492187,0.1601563 -0.702069,-0.2995495 -1.437188,-0.4492188 -2.195313,-0.4492188 -0.626887,0 -1.22309,0.1018355 -1.804687,0.2988282 -6.64e-4,6.524e-4 -0.0013,0.0013 -0.002,0.00195 C 11.074275,8.4327977 10.287157,8.9421357 9.6308594,9.6640625 8.9743291,10.386246 8.5380385,11.21926 8.3222656,12.185547 c -0.033338,0.147978 -0.1488972,0.263537 -0.296875,0.296875 -1.0401185,0.232169 -1.8586734,0.7468 -2.5175781,1.582031 -0.6593355,0.835778 -0.9746094,1.754626 -0.9746094,2.835938 0,0.835947 0.2005676,1.591077 0.6054688,2.28125 0.4087525,0.696737 0.9452772,1.242655 1.6503906,1.660156 0.7003368,0.414672 1.4559539,0.615234 2.28125,0.615234 H 19.880859 c 0.822355,0 1.577024,-0.209477 2.28125,-0.617187 0.694995,-0.408239 1.252818,-0.956038 1.658203,-1.65625 6.64e-4,-6.69e-4 0.0013,-0.0013 0.002,-0.002 0.414673,-0.700337 0.615234,-1.455954 0.615234,-2.28125 0,-0.11056 -0.0061,-0.175056 -0.002,-0.154297 -0.0042,-0.01995 -0.0068,-0.0402 -0.0078,-0.06055 -0.0276,-0.726481 -0.228766,-1.411501 -0.599621,-2.060497 -0.09205,-0.161233 -0.05865,-0.364897 0.08008,-0.488281 0.659722,-0.586421 1.12732,-1.35889 1.380859,-2.373047 6.51e-4,-0.002 0.0013,-0.0039 0.002,-0.0059 l 0.130859,-0.488281 -0.435547,-0.154297 C 24.516106,10.973074 24.092795,10.762798 23.716797,10.486328 23.347635,10.214886 23.03955,9.9089988 22.816406,9.5449219 22.599591,9.207285 22.444606,8.8653186 22.335938,8.5175781 22.224824,8.1620172 22.167969,7.8017819 22.167969,7.4492188 c 0,-0.2898197 0.03305,-0.6072989 0.109375,-0.9453126 -6e-6,-0.0013 -6e-6,-0.00261 0,-0.00391 l 0.0957,-0.4082031 -0.628906,-0.1914063 C 21.332647,5.7975173 20.954813,5.7519531 20.609375,5.7519531 Z M 20.630859,6.6875 h 0.0059 c 0.106269,-2.883e-4 0.182515,-0.00764 0.308593,0.017578 0.183707,0.036428 0.316147,0.1974823 0.316407,0.3847657 V 7.330078 c 0,0.8968401 0.247532,1.7528852 0.736328,2.5800781 0.493436,0.8177769 1.149684,1.4172699 1.990234,1.8144529 0.193902,0.09184 0.278247,0.322265 0.189453,0.517579 -0.199575,0.443499 -0.479043,0.849039 -0.847656,1.195312 -0.149499,0.140205 -0.381669,0.141903 -0.533203,0.0039 -0.800051,-0.726483 -1.74854,-1.078125 -2.90625,-1.078125 h -0.320313 c -0.186084,1.18e-4 -0.346719,-0.130347 -0.384765,-0.3125 -0.231506,-1.120287 -0.835189,-2.0986866 -1.841837,-2.9628844 -0.144889,-0.1249288 -0.178705,-0.3360699 -0.08008,-0.5 0.364755,-0.6079214 0.870689,-1.0797064 1.474611,-1.4101562 0.60514,-0.3407122 1.247733,-0.5003379 1.892578,-0.4902344 z m -6.830078,2.0507812 c 0.03847,0 0.112347,7.036e-4 0.203125,0.013672 0.04303,0.00615 0.06366,0.00586 0.0957,0.00586 0.01174,1.241e-4 0.02348,7.747e-4 0.03516,0.00195 1.092169,0.097322 2.067902,0.5397596 2.867187,1.3066408 0.801627,0.769129 1.270107,1.737581 1.378906,2.832032 l 0.05273,0.398437 h 1.435547 c 0.975566,0 1.853234,0.372037 2.55664,1.064453 0.70453,0.693521 1.076172,1.564147 1.076172,2.539063 0,0.992874 -0.368761,1.880003 -1.060547,2.59375 -0.695105,0.717172 -1.576766,1.08789 -2.560547,1.08789 H 9.0703125 c -0.9688755,0 -1.8378838,-0.383569 -2.5390625,-1.095703 -0.7028218,-0.713804 -1.0742188,-1.601513 -1.0742188,-2.585937 0,-0.912124 0.3020994,-1.738776 0.9238282,-2.416016 0.6195148,-0.674829 1.4202254,-1.075836 2.3417968,-1.185547 0.00974,-10e-4 0.01951,-0.0017 0.029297,-0.002 l 0.3398438,-0.01367 0.037109,-0.382812 c -2.58e-5,-0.0026 -2.58e-5,-0.0052 0,-0.0078 0.1079148,-0.8849 0.4391457,-1.679935 0.980469,-2.363281 0.531773,-0.6837088 1.215129,-1.1913022 2.009766,-1.4960943 0.748343,-0.2575003 0.910689,-0.2972254 1.681687,-0.2949217 z"/>
</svg>
