<?xml version="1.0" encoding="utf-8"?>
<!-- Generator: Adobe Illustrator 22.0.1, SVG Export Plug-In . SVG Version: 6.00 Build 0)  -->
<svg version="1.1" id="Layer_1" xmlns="http://www.w3.org/2000/svg" xmlns:xlink="http://www.w3.org/1999/xlink" x="0px" y="0px"
	 viewBox="0 0 30 30" style="enable-background:new 0 0 30 30;" xml:space="preserve">
<path d="m 14.310547,7.8476562 c -1.326934,10e-8 -2.472164,0.3956211 -3.494141,1.2207032 C 9.7904871,9.8966243 9.1383792,10.923789 8.8476562,12.199219 a 0.40808938,0.40808938 0 0 1 -0.3046874,0.30664 c -1.0189165,0.240835 -1.8359629,0.754915 -2.5039063,1.589844 -0.6674793,0.834349 -0.9902344,1.74963 -0.9902344,2.814453 0,1.24018 0.3915376,2.256298 1.2539063,3.146485 0.8002785,0.826094 1.7476058,1.238226 2.8691406,1.345703 V 20.544922 C 8.3175909,20.451493 7.5429478,20.099196 6.9335938,19.449219 6.2713155,18.742789 5.921875,17.874083 5.921875,16.910156 c 0,-0.921642 0.3250513,-1.761033 0.9589844,-2.439453 0.6289917,-0.673131 1.4310773,-1.084647 2.3496094,-1.195312 a 0.40808938,0.40808938 0 0 1 0.025391,-0.0039 l 0.3710937,-0.01953 0.046875,-0.359375 c 0.1084305,-1.171049 0.6141829,-2.183321 1.4921879,-2.9746092 0.870328,-0.7932625 1.944173,-1.1953126 3.123046,-1.1953126 1.179808,0 2.236921,0.4044909 3.123047,1.1933594 0.879043,0.7813714 1.403938,1.7993804 1.523438,2.9726564 l 0.05273,0.382812 h 1.41211 c 0.988096,-10e-7 1.88137,0.372861 2.597656,1.078125 0.714551,0.703559 1.099609,1.578061 1.099609,2.550782 0,0.963926 -0.349439,1.832632 -1.011718,2.539062 -0.616557,0.657661 -1.401048,1.014048 -2.267579,1.101563 v 0.876953 c 0.711428,-0.05076 1.369092,-0.240766 1.976563,-0.615235 0.674151,-0.415572 1.202766,-0.961134 1.589844,-1.652343 0.387029,-0.691124 0.576171,-1.424814 0.576172,-2.240235 0,-0.819723 -0.208431,-1.573585 -0.613282,-2.263672 -0.404908,-0.690184 -0.95837,-1.234901 -1.658203,-1.630859 -0.701126,-0.39669 -1.45666,-0.597656 -2.279297,-0.597656 h -0.320312 a 0.40808938,0.40808938 0 0 1 -0.396485,-0.3125 C 19.39286,10.84713 18.751249,9.8382584 17.738281,9.0410156 16.722899,8.2418725 15.605537,7.8476563 14.310547,7.8476562 Z M 19.169922,17.4375 c -0.07247,0 -0.132055,0.01823 -0.226563,0.08008 -0.0564,0.04172 -0.104744,0.104681 -0.142578,0.222656 -3.86e-4,0.0012 -0.0016,7.38e-4 -0.002,0.002 l -1.623047,5.748046 c -0.02583,0.103305 -0.02734,0.150542 -0.02734,0.128907 0,0.06944 0.02507,0.155377 0.07617,0.246093 0.0547,0.07726 0.104219,0.114071 0.230469,0.152344 0.0012,3.75e-4 7.01e-4,0.0016 0.002,0.002 l 0.136719,0.02734 c 0.09373,-0.0027 0.168201,-0.02309 0.253906,-0.08594 0.06108,-0.04479 0.09881,-0.09974 0.123047,-0.214844 a 0.40808938,0.40808938 0 0 1 0.0059,-0.02734 l 1.63086,-5.728516 c 0.0045,-0.01496 0.0066,-0.05693 0.0098,-0.07617 0.01079,-0.06476 0.01367,-0.130643 0.01367,-0.07422 0,-0.07765 -0.02096,-0.155461 -0.08008,-0.244141 -0.03961,-0.05941 -0.08915,-0.09808 -0.226562,-0.138672 -0.05837,-0.01169 -0.116814,-0.01953 -0.154297,-0.01953 z m -6.730469,0.0098 c -0.05862,0 -0.140505,0.02075 -0.232422,0.08203 -0.06798,0.04532 -0.120754,0.11226 -0.15625,0.222656 -3.55e-4,0.0011 -0.0016,8.4e-4 -0.002,0.002 l -1.626953,5.757813 a 0.40808938,0.40808938 0 0 1 -0.0059,0.01758 c -0.01795,0.05384 -0.01758,0.09194 -0.01758,0.07031 0,0.08729 0.01975,0.1579 0.0918,0.271485 0.0541,0.07758 0.113565,0.124721 0.257813,0.164062 l -0.107422,-0.01367 c 0.158072,-1.5e-5 0.135635,0.02187 0.158203,0.0293 0.01316,0.0043 0.02758,0.0091 0.04102,0.01367 0.05359,0.0134 0.03459,0.0078 0.0098,0.0078 0.004,0 0.0039,-0.0019 0.0078,-0.002 0.134091,-0.0016 0.210642,-0.02974 0.265625,-0.07227 0.05659,-0.04377 0.111772,-0.115197 0.154297,-0.267578 a 0.40808938,0.40808938 0 0 1 0,-0.002 L 12.908203,18 v -0.002 c 0.04416,-0.159138 0.0301,-0.237596 -0.03711,-0.349609 -0.06673,-0.111213 -0.125477,-0.153726 -0.257813,-0.175782 a 0.40808938,0.40808938 0 0 1 -0.02148,-0.0039 c -0.07151,-0.01589 -0.126067,-0.02148 -0.152344,-0.02148 z m 3.400391,0.01172 c -0.09249,0 -0.167048,0.01944 -0.273438,0.08594 -0.06707,0.04191 -0.0961,0.07951 -0.117187,0.179687 a 0.40808938,0.40808938 0 0 1 -0.0059,0.02539 l -2.439453,8.765625 c -0.04865,0.180686 -0.03051,0.245223 0.01367,0.320313 0.102565,0.137171 0.183589,0.194822 0.271484,0.216796 a 0.40808938,0.40808938 0 0 1 0.06055,0.02148 c 0.01631,0.007 0.06266,0.01758 0.08984,0.01758 0.104543,0 0.157975,-0.01692 0.265625,-0.09766 0.09782,-0.07337 0.118865,-0.113088 0.138672,-0.197266 a 0.40808938,0.40808938 0 0 1 0.0039,-0.01563 l 2.427735,-8.775391 c 0.0391,-0.149904 0.02926,-0.224319 -0.0332,-0.33789 -0.06493,-0.118062 -0.11717,-0.157898 -0.238282,-0.191407 -0.05418,-0.01084 -0.108156,-0.01758 -0.164062,-0.01758 z" />
</svg>
