<?xml version="1.0" encoding="utf-8"?>
<!-- Generator: Adobe Illustrator 22.0.1, SVG Export Plug-In . SVG Version: 6.00 Build 0)  -->
<svg version="1.1" id="Layer_1" xmlns="http://www.w3.org/2000/svg" xmlns:xlink="http://www.w3.org/1999/xlink" x="0px" y="0px"
	 viewBox="0 0 30 30" style="enable-background:new 0 0 30 30;" xml:space="preserve">
<path d="m 14.300781,7.8085938 c -1.335616,0 -2.481468,0.4034467 -3.503906,1.2382812 -1.0253803,0.8372375 -1.6533956,1.86007 -1.9257812,3.15625 a 0.40846096,0.40846096 0 0 1 -0.3125,0.314453 c -1.0460176,0.23142 -1.8845833,0.755143 -2.5507813,1.587891 a 0.40846096,0.40846096 0 0 1 -0.00195,0.002 c -0.676254,0.833738 -0.9980469,1.746728 -0.9980469,2.822266 0,0.606014 0.1186204,1.170235 0.3496094,1.724609 0.2310354,0.554485 0.5404415,1.015628 0.9355469,1.419922 a 0.40846096,0.40846096 0 0 1 0.00195,0.0039 c 0.3830299,0.401269 0.8474708,0.728823 1.4023437,0.978516 0.4768649,0.214589 0.9714759,0.306774 1.484375,0.357421 v -0.857421 c -0.8637379,-0.09911 -1.6370849,-0.453617 -2.2402344,-1.097657 -0.6532315,-0.697519 -1,-1.565211 -1,-2.529296 0,-0.938055 0.3241387,-1.784782 0.9550782,-2.472657 0.6253472,-0.692349 1.4504038,-1.086524 2.3808594,-1.164062 l -0.048828,0.0059 0.4003906,-0.08203 0.044922,-0.34375 c 0.1086383,-1.173293 0.6234849,-2.194622 1.5019529,-2.9863282 0.878554,-0.7917826 1.945695,-1.1953126 3.134766,-1.1953126 0.780595,0 1.530081,0.1747182 2.210937,0.5371094 0.673862,0.3586682 1.237817,0.8560644 1.673828,1.4882814 0.439388,0.637112 0.695264,1.359711 0.771485,2.132812 v -0.0098 l 0.04883,0.392578 h 1.464844 c 0.990575,0 1.873399,0.383165 2.578125,1.08789 a 0.40846096,0.40846096 0 0 1 0.002,0.002 c 0.705324,0.716345 1.078125,1.60947 1.078125,2.597656 0,0.946224 -0.350366,1.805481 -1.013672,2.501953 -0.613107,0.643762 -1.386474,1.00492 -2.236328,1.121094 v 0.865234 c 1.114717,-0.08866 2.050599,-0.493549 2.84375,-1.320312 l 0.002,-0.002 c 0.845043,-0.892386 1.257812,-1.910917 1.257813,-3.15625 0,-0.831792 -0.200476,-1.585146 -0.595704,-2.285157 v -0.002 c -0.407311,-0.703037 -0.940951,-1.243363 -1.640625,-1.648437 a 0.40846096,0.40846096 0 0 1 -0.002,-0.002 C 22.066117,12.588685 21.313864,12.388672 20.480469,12.388672 H 20.140625 A 0.40846096,0.40846096 0 0 1 19.744141,12.078125 C 19.434236,10.810335 18.780706,9.7997078 17.767578,9.0019531 16.743321,8.2032202 15.606688,7.8085938 14.300781,7.8085938 Z m -1.810547,9.6171872 0.08984,0.01563 0.0332,0.0059 h 0.0059 c -0.03959,-0.0032 -0.07062,-0.0021 -0.128907,-0.02148 z m -0.04101,0.01172 c -0.07066,0 -0.144337,0.02345 -0.230469,0.07813 -0.07907,0.05946 -0.133354,0.128453 -0.167969,0.236328 -3.25e-4,0.001 -0.0016,9.33e-4 -0.002,0.002 l -0.291016,1.017578 c -0.0025,0.03062 -2.88e-4,0.04051 -0.0078,0.07813 -0.0013,0.0064 -0.002,0.0081 -0.002,0.03125 0,0.07465 0.01388,0.129406 0.0957,0.25586 0.05532,0.08549 0.107416,0.128017 0.253906,0.167969 a 0.40846096,0.40846096 0 0 1 0.05469,0.01953 c 0.142937,0.06215 0.191253,0.05751 0.277344,0.0059 0.103192,-0.06192 0.160865,-0.131742 0.21289,-0.339844 l 0.240234,-0.996093 a 0.40846096,0.40846096 0 0 1 0.0059,-0.02344 c 0.04399,-0.144525 0.03702,-0.203264 -0.02734,-0.310547 a 0.40846096,0.40846096 0 0 1 -0.0078,-0.01367 c -0.05862,-0.106571 -0.123049,-0.157438 -0.271485,-0.203125 -0.02664,-0.0028 -0.08716,-0.0059 -0.05273,-0.0059 z m 6.83789,0.04883 a 0.40846096,0.40846096 0 0 1 -0.07031,0.002 c -0.07432,-0.0044 -0.141389,0.01024 -0.25,0.07813 -0.05303,0.03314 -0.07924,0.06152 -0.105469,0.199219 a 0.40846096,0.40846096 0 0 1 -0.0078,0.03906 l -0.300782,1.03125 c -0.01184,0.05493 -0.02284,0.107111 -0.0293,0.138671 -0.0078,0.03821 -0.0059,0.08516 -0.0059,0.0059 0,0.0721 0.01483,0.127604 0.08398,0.230469 2.64e-4,3.68e-4 0.0017,-3.69e-4 0.002,0 0.04491,0.06249 0.107438,0.114975 0.232422,0.152343 0.15025,0.03399 0.266044,0.04883 0.234374,0.04883 0.111043,0 0.156448,-0.02082 0.207032,-0.06445 0.04954,-0.04273 0.109124,-0.133368 0.158203,-0.291015 l 0.236328,-1.009766 a 0.40846096,0.40846096 0 0 1 0.0039,-0.0078 c 0.05225,-0.201528 0.0312,-0.254461 -0.0098,-0.3125 a 0.40846096,0.40846096 0 0 1 -0.0078,-0.01367 c -0.08594,-0.132217 -0.153534,-0.179159 -0.267578,-0.205079 a 0.40846096,0.40846096 0 0 1 -0.01758,-0.0039 c -0.03798,-0.01036 -0.07032,-0.01575 -0.08594,-0.01758 z m -4.126953,3.103516 c -0.140037,-0.04262 -0.213425,-0.03366 -0.318359,0.0293 a 0.40846096,0.40846096 0 0 1 -0.02149,0.01172 c -0.118441,0.06204 -0.163744,0.118933 -0.208984,0.267579 l -0.267578,1.015624 a 0.40846096,0.40846096 0 0 1 0,0.0039 c -0.02227,0.08165 -0.02539,0.123706 -0.02539,0.142578 0,0.0744 0.02274,0.150492 0.08984,0.234375 a 0.40846096,0.40846096 0 0 1 0.01758,0.02539 c 0.04958,0.07212 0.08871,0.10189 0.226563,0.126954 a 0.40846096,0.40846096 0 0 1 0.02734,0.0059 c 0.07449,0.01862 0.135438,0.03287 0.177734,0.04102 0.0423,0.0081 0.08314,0.0078 0.0332,0.0078 0.08566,0 0.111903,-0.01277 0.160156,-0.05859 0.04825,-0.04583 0.114376,-0.147418 0.166016,-0.326171 l 0.236328,-0.972657 a 0.40846096,0.40846096 0 0 1 0.0039,-0.01953 c 0.04496,-0.154156 0.03292,-0.22175 -0.02539,-0.330078 -0.07431,-0.121337 -0.125176,-0.167081 -0.25586,-0.201172 a 0.40846096,0.40846096 0 0 1 -0.01563,-0.0039 z M 11.25,22.240234 c -0.143117,-0.04356 -0.198629,-0.03668 -0.308594,0.0293 a 0.40846096,0.40846096 0 0 1 -0.01367,0.0078 c -0.100242,0.05513 -0.162062,0.133932 -0.207031,0.273437 -3.59e-4,0.0011 -0.0016,8.32e-4 -0.002,0.002 l -0.263672,1.011719 0.01367,-0.103515 c 0,0.176356 -0.023,0.157989 -0.0293,0.189453 -0.0097,0.04872 -0.01172,0.10534 -0.01172,0.04883 0,0.07465 0.02607,0.179609 0.08789,0.269531 0.05786,0.08416 0.131197,0.138076 0.251953,0.173828 0.09266,0.0012 0.156044,0.0098 0.101563,0.0098 h 0.0918 c 0.111126,0 0.154868,-0.02067 0.205078,-0.06445 0.05021,-0.04378 0.112003,-0.133146 0.162109,-0.302735 l 0.236328,-0.988281 a 0.40846096,0.40846096 0 0 1 0.0059,-0.02539 c 0.04337,-0.142502 0.03608,-0.201588 -0.0293,-0.310546 C 11.469041,22.340981 11.398944,22.285565 11.25,22.240234 Z m 6.716797,0.03516 c -0.121331,-0.03232 -0.178991,-0.02663 -0.314453,0.05078 -0.121158,0.06923 -0.173517,0.137047 -0.220703,0.298828 l -0.273438,0.962891 c -5.55e-4,0.0025 5.27e-4,0.0034 0,0.0059 -0.0118,0.05498 -0.01657,0.09678 -0.01758,0.128906 0.0058,0.08379 0.04049,0.18673 0.109375,0.316406 0.05139,0.07097 0.08813,0.10083 0.189453,0.121094 a 0.40846096,0.40846096 0 0 1 0.01953,0.0039 c 0.03915,0.0098 0.09828,0.01758 0.160157,0.01758 0.151877,0 0.223623,-0.03111 0.269531,-0.06641 0.04591,-0.03529 0.09077,-0.09209 0.125,-0.232422 a 0.40846096,0.40846096 0 0 1 0.002,-0.0098 L 18.304688,22.8125 c 0.03352,-0.122921 0.02529,-0.195481 -0.04492,-0.3125 a 0.40846096,0.40846096 0 0 1 -0.0059,-0.0078 c -0.06726,-0.117712 -0.139446,-0.170655 -0.287109,-0.216797 z m -4.136719,3.085937 c -0.129914,-0.03954 -0.205042,-0.02893 -0.318359,0.03906 -0.118601,0.07116 -0.179608,0.148118 -0.214844,0.289062 a 0.40846096,0.40846096 0 0 1 -0.0039,0.01563 l -0.291016,0.990234 c -0.0043,0.01752 -0.0073,0.05529 -0.0098,0.07031 -0.01198,0.07186 -0.01367,0.120966 -0.01367,0.06445 0,0.08971 0.02185,0.164557 0.09766,0.265625 a 0.40846096,0.40846096 0 0 1 0.0098,0.01367 c 0.05046,0.0734 0.09101,0.104261 0.226562,0.128906 a 0.40846096,0.40846096 0 0 1 0.03516,0.0078 c 0.08151,0.02223 0.132166,0.02539 0.132813,0.02539 0.151877,0 0.223763,-0.02992 0.271484,-0.06641 0.04772,-0.03649 0.09429,-0.09667 0.132813,-0.240234 l 0.248046,-1.03125 a 0.40846096,0.40846096 0 0 1 0.002,-0.0078 c 0.04245,-0.162716 0.037,-0.22578 -0.0293,-0.341797 -0.07764,-0.135876 -0.129284,-0.178189 -0.275391,-0.222656 z" />
</svg>
