<?xml version="1.0" encoding="utf-8"?>
<!-- Generator: Adobe Illustrator 22.0.1, SVG Export Plug-In . SVG Version: 6.00 Build 0)  -->
<svg version="1.1" id="Layer_1" xmlns="http://www.w3.org/2000/svg" xmlns:xlink="http://www.w3.org/1999/xlink" x="0px" y="0px"
	 viewBox="0 0 30 30" style="enable-background:new 0 0 30 30;" xml:space="preserve">
<path	d="m 14.289062,7.8476562 c -1.326934,10e-8 -2.472164,0.3956211 -3.49414,1.2207032 -1.0248065,0.827367 -1.6658132,1.8532566 -1.9570314,3.1308596 a 0.40808949,0.40808949 0 0 1 -0.2988281,0.30664 c -1.0418898,0.260473 -1.8617886,0.781476 -2.5195313,1.615235 -0.6573653,0.83328 -0.9707031,1.749874 -0.9707031,2.828125 0,1.222676 0.4149414,2.260851 1.2207031,3.152343 0.7997172,0.823292 1.7418222,1.226214 2.8613282,1.316407 V 20.554688 C 8.2800816,20.455178 7.5039963,20.111164 6.8925781,19.458984 6.2316488,18.753992 5.8808594,17.895355 5.8808594,16.949219 c 0,-0.931184 0.3281911,-1.767857 0.9570312,-2.462891 0.6325784,-0.699165 1.4463686,-1.094215 2.3671875,-1.171875 l 0.3769531,-0.05078 0.041016,-0.34961 v 0.0098 C 9.7314489,11.731404 10.248945,10.710502 11.125,9.9101562 c 0.877034,-0.8012417 1.942935,-1.21875 3.134766,-1.21875 1.182243,0 2.236557,0.4156719 3.121093,1.203125 a 0.40808949,0.40808949 0 0 1 0.002,0.00195 c 0.876982,0.7903656 1.403893,1.8087056 1.523438,2.9824216 l 0.05273,0.382813 h 1.410157 c 0.996935,0 1.892848,0.373317 2.609375,1.089843 0.714827,0.714828 1.089843,1.599867 1.089843,2.587891 0,0.946136 -0.350789,1.804774 -1.011718,2.509766 -0.616557,0.657661 -1.401048,1.014047 -2.267579,1.101562 v 0.861328 c 1.12705,-0.08486 2.079282,-0.493819 2.876954,-1.326171 a 0.40808949,0.40808949 0 0 1 0.0039,-0.002 c 0.861769,-0.880302 1.271484,-1.909291 1.271484,-3.134765 0,-0.819724 -0.20878,-1.57138 -0.615234,-2.273438 -0.404712,-0.699046 -0.959486,-1.245561 -1.66211,-1.652343 -0.699792,-0.405143 -1.450729,-0.605469 -2.273437,-0.605469 h -0.320313 a 0.40808949,0.40808949 0 0 1 -0.396484,-0.3125 C 19.373329,10.847129 18.731717,9.8382583 17.71875,9.0410156 16.703556,8.2420205 15.584052,7.8476563 14.289062,7.8476562 Z m 0.720704,11.0507818 c -0.08676,0 -0.170194,0.03279 -0.285157,0.130859 -0.0947,0.09747 -0.126953,0.169626 -0.126953,0.300781 0,0.131697 0.03325,0.212657 0.125,0.3125 0.09183,0.09085 0.153874,0.119141 0.28711,0.119141 0.149057,0 0.226449,-0.03137 0.330078,-0.128907 0.09304,-0.08757 0.121093,-0.157588 0.121094,-0.292968 0,-0.149323 -0.02287,-0.202559 -0.13086,-0.310547 -0.102463,-0.102463 -0.17099,-0.130859 -0.320312,-0.130859 z m 3.25,1.699218 c -0.13538,0 -0.208217,0.02853 -0.310547,0.13086 -0.107723,0.107723 -0.13086,0.169936 -0.13086,0.291015 0,0.123553 0.03689,0.20681 0.13086,0.300781 a 0.40808949,0.40808949 0 0 1 0.0078,0.0098 c 0.0877,0.09318 0.153412,0.121094 0.302735,0.121094 0.149322,0 0.199585,-0.02188 0.292968,-0.121094 a 0.40808949,0.40808949 0 0 1 0.0078,-0.0098 c 0.08824,-0.08824 0.121094,-0.16149 0.121094,-0.310546 0,-0.120789 -0.03313,-0.203055 -0.121094,-0.291016 -0.0881,-0.0881 -0.165678,-0.121094 -0.300781,-0.121094 z m -6.429688,0.0098 c -0.149057,0 -0.206669,0.02698 -0.300781,0.121094 -0.08796,0.08796 -0.121094,0.170225 -0.121094,0.291015 0,0.149058 0.03285,0.222306 0.121094,0.310547 a 0.40808949,0.40808949 0 0 1 0.0078,0.0098 c 0.08757,0.09304 0.157589,0.121094 0.292969,0.121094 0.149323,0 0.199587,-0.02188 0.292969,-0.121094 a 0.40808949,0.40808949 0 0 1 0.0078,-0.0098 c 0.08824,-0.08824 0.121094,-0.161489 0.121094,-0.310547 0,-0.12079 -0.03313,-0.203055 -0.121094,-0.291015 -0.0881,-0.0881 -0.165678,-0.121094 -0.300781,-0.121094 z m 3.179688,1.890625 c -0.11907,0 -0.185583,0.02852 -0.277344,0.119141 -0.0997,0.108211 -0.134766,0.199863 -0.134766,0.332031 0,0.135103 0.03257,0.219909 0.128906,0.322265 0.09325,0.09907 0.147824,0.121094 0.283204,0.121094 0.149322,0 0.217849,-0.0284 0.320312,-0.130859 0.101226,-0.101226 0.130859,-0.17712 0.13086,-0.3125 0,-0.12383 -0.03277,-0.202692 -0.140626,-0.310547 -0.107855,-0.107856 -0.186716,-0.140625 -0.310546,-0.140625 z m -3.189454,1.730469 c -0.131197,0 -0.201288,0.03119 -0.292968,0.115234 -0.08566,0.08673 -0.119141,0.159528 -0.119141,0.306641 0,0.132944 0.03807,0.214537 0.109375,0.287109 0.08699,0.07924 0.171433,0.115234 0.302734,0.115234 0.160127,0 0.212539,-0.02309 0.300782,-0.111328 0.09411,-0.09411 0.121094,-0.151725 0.121094,-0.300781 0,-0.147055 -0.02807,-0.204956 -0.119141,-0.296875 -0.08699,-0.07924 -0.171432,-0.115234 -0.302735,-0.115234 z m 6.439454,0 c -0.143416,0 -0.22267,0.0376 -0.308594,0.115234 -0.09915,0.10922 -0.132813,0.190721 -0.132813,0.306641 0,0.123552 0.03103,0.189001 0.121094,0.273437 a 0.40808949,0.40808949 0 0 1 0.0098,0.0078 c 0.08824,0.08824 0.16149,0.121093 0.310547,0.121093 0.157958,0 0.210743,-0.02407 0.296875,-0.109375 0.08431,-0.09171 0.115234,-0.157832 0.115234,-0.302734 0,-0.160126 -0.02988,-0.225764 -0.101563,-0.292969 -0.09563,-0.08965 -0.161755,-0.11914 -0.310546,-0.11914 z m -3.25,1.939453 c -0.11907,0 -0.185583,0.02852 -0.277344,0.11914 -0.104017,0.112396 -0.134766,0.190182 -0.134766,0.322266 0,0.131602 0.02873,0.198503 0.125,0.302734 0.09183,0.09085 0.153874,0.119141 0.28711,0.119141 0.149057,0 0.226449,-0.03137 0.330078,-0.128906 0.09304,-0.08757 0.121093,-0.157589 0.121094,-0.292969 0,-0.13538 -0.02853,-0.208216 -0.13086,-0.310547 -0.102463,-0.102463 -0.17099,-0.130859 -0.320312,-0.130859 z" />
</svg>
