<?xml version="1.0" encoding="utf-8"?>
<!-- Generator: Adobe Illustrator 22.0.1, SVG Export Plug-In . SVG Version: 6.00 Build 0)  -->
<svg version="1.1" id="Layer_1" xmlns="http://www.w3.org/2000/svg" xmlns:xlink="http://www.w3.org/1999/xlink" x="0px" y="0px"
	 viewBox="0 0 30 30" style="enable-background:new 0 0 30 30;" xml:space="preserve">
<path d="m 14.310547,7.8242188 c -1.323662,-10e-8 -2.480331,0.4052802 -3.501953,1.2207031 -1.0222926,0.8159583 -1.6640614,1.8408461 -1.9550784,3.1269531 -0.035014,0.155105 -0.1556642,0.276514 -0.3105468,0.3125 -1.0278037,0.240747 -1.8406644,0.752002 -2.5078126,1.585937 -0.6639081,0.829886 -0.9902343,1.776367 -0.9902343,2.839844 0,1.028276 0.295872,1.918689 0.9042969,2.720703 0.6105778,0.804853 1.3867724,1.346015 2.3691406,1.642579 0.23271,0.06928 0.4237826,0.132283 0.4237826,0.132283 L 8.0625,23.15625 h 1.7480469 c 0.3074171,3.7e-5 0.4928131,0.01121 0.4928131,0.01121 l -0.7232819,3.275898 2.8085939,-4.11914 -2.302552,-0.104136 c 0,0 0.11269,-0.229379 0.259583,-0.505239 l 2.269531,-4.25 h -2.390625 l -1.2128356,3.098857 c 0,0 -0.097518,-0.03918 -0.302789,-0.09104 C 7.9138366,20.271071 7.2349539,19.820873 6.7148438,19.167969 6.1905129,18.509766 5.9257812,17.734844 5.9257812,16.900391 c 0,-0.923091 0.3264953,-1.763202 0.9589844,-2.451172 6.478e-4,-6.69e-4 0.0013,-0.0013 0.00195,-0.002 C 7.5151945,13.774686 8.3170958,13.36197 9.234375,13.25 l 0.3964844,-0.05273 0.046875,-0.339844 c 0.1191948,-1.170277 0.6253566,-2.19279 1.5058596,-2.9863282 0.877991,-0.7912766 1.943251,-1.2050782 3.126953,-1.2050782 1.183701,0 2.248962,0.4138016 3.126953,1.2050782 0.889016,0.7923392 1.405235,1.8150812 1.535156,2.9843752 l 0.04687,0.380859 h 1.390625 c 1.006934,0 1.902715,0.370819 2.611328,1.06836 0.709954,0.69886 1.091797,1.59294 1.091797,2.576171 0,0.947097 -0.346724,1.805595 -1.001953,2.494141 -0.611583,0.64268 -1.404324,1.010321 -2.287109,1.123047 v 0.888672 c 1.121436,-0.08685 2.072595,-0.503617 2.878906,-1.335938 0.862566,-0.89039 1.273437,-1.915145 1.273437,-3.160156 0,-0.832476 -0.200542,-1.582228 -0.613281,-2.279297 -6.74e-4,-0.0013 -0.0013,-0.0026 -0.002,-0.0039 -0.403887,-0.697624 -0.95519,-1.242265 -1.65625,-1.648438 h -0.002 c -0.709733,-0.40528 -1.461096,-0.605478 -2.29287,-0.605478 H 20.099609 C 19.90919,12.353547 19.74324,12.223848 19.697266,12.039062 19.387956,10.792451 18.737404,9.7932838 17.734375,9.0058594 16.731718,8.2187267 15.604537,7.8242188 14.310547,7.8242188 Z M 15.820312,17.4375 c -0.07036,0.0017 -0.144399,0.02075 -0.230468,0.07813 -0.06848,0.04565 -0.109203,0.09306 -0.136719,0.203125 -6.6e-4,0.0013 -0.0013,0.0026 -0.002,0.0039 l -2.251953,8.681641 c -0.0086,0.08713 -0.01563,0.160088 -0.01563,0.214844 0,0.12766 0.027,0.190666 0.0625,0.238281 0.03338,0.04476 0.0948,0.08989 0.210937,0.128906 0.0297,0.0022 0.03549,-2.69e-4 0.07227,0.0059 0.02311,0.0039 0.03815,0.0039 0.07031,0.0039 0.08809,0 0.163887,-0.02064 0.271485,-0.08789 0.06361,-0.03976 0.104311,-0.0867 0.134765,-0.220703 0.0012,-0.0039 0.0025,-0.0078 0.0039,-0.01172 l 2.248046,-8.685547 c 0.04016,-0.160649 0.02733,-0.237352 -0.03125,-0.345703 -0.05956,-0.101741 -0.115696,-0.147297 -0.246093,-0.189453 -0.08172,-0.0098 -0.142712,-0.01541 -0.160157,-0.01758 z m 3.359376,0.01953 c -0.08251,0.0018 -0.148943,0.02045 -0.21875,0.07031 -0.05435,0.03882 -0.101375,0.100861 -0.140626,0.226562 l -1.455078,5.679688 c -0.0028,0.02841 -0.002,0.04902 -0.0078,0.08398 -0.0028,0.01716 -0.0068,0.03412 -0.01172,0.05078 2e-6,6.67e-4 2e-6,0.0013 0,0.002 0.0013,0.05856 0.01313,0.105479 0.03906,0.152344 0.100241,0.154384 0.195612,0.228754 0.285156,0.261719 0.07588,0.01895 0.141345,0.03125 0.169922,0.03125 0.02835,0 0.07256,-0.006 0.134765,-0.03711 0.0071,-0.0035 0.01423,-0.0067 0.02148,-0.0098 0.07681,-0.03292 0.131497,-0.07937 0.18164,-0.287109 -6e-6,-0.0013 -6e-6,-0.0026 0,-0.0039 l 1.435547,-5.654296 v -0.0039 c 0.02924,-0.139976 0.04297,-0.281159 0.04297,-0.179687 0,-0.0576 -0.01207,-0.110384 -0.08008,-0.203125 -0.05754,-0.07846 -0.124006,-0.126259 -0.234375,-0.16211 -0.08345,-0.01 -0.144454,-0.01539 -0.162109,-0.01758 z"/>
</svg>
