<svg style="fill-rule:evenodd;" xmlns="http://www.w3.org/2000/svg" version="1.1" viewBox="0 0 239 239">
<style>
  path {
    fill: black;
  }
  @media (prefers-color-scheme: dark) {
    path {
      fill: white;
    }
  }
  </style>
<path d="M119.5+9C58.4725+8.99998+9+58.4725+9+119.5C9+180.527+58.4725+230+119.5+230C180.527+230+230+180.527+230+119.5C230+58.4725+180.527+9+119.5+9ZM119.5+6.6103e-06C185.498+6.6103e-06+239+53.502+239+119.5C239+185.498+185.498+239+119.5+239C53.502+239+0+185.498+0+119.5C0+53.502+53.502+3.70007e-05+119.5+6.6103e-06Z" opacity="1" fill="#000000"/>
<path d="M93.2594+77.2925C69.9474+77.2925+51.0406+96.1681+51.0406+119.48C51.0407+142.792+69.9474+161.699+93.2594+161.699C93.3347+161.699+93.4029+161.668+93.4781+161.668C93.4822+161.668+93.474+161.699+93.4781+161.699L145.228+161.699C145.232+161.699+145.224+161.668+145.228+161.668C145.303+161.668+145.372+161.699+145.447+161.699C168.759+161.699+187.634+142.792+187.634+119.48C187.634+96.168+168.759+77.2925+145.447+77.2925C145.372+77.2925+145.303+77.3234+145.228+77.3238C145.224+77.3228+145.232+77.2925+145.228+77.2925L93.4781+77.2925C93.474+77.2925+93.4822+77.3228+93.4781+77.3238C93.4029+77.3234+93.3347+77.2925+93.2594+77.2925ZM145.416+86.2925C163.757+86.2925+178.634+101.17+178.634+119.511C178.634+137.853+163.757+152.699+145.416+152.699C127.074+152.699+112.197+137.853+112.197+119.511C112.197+101.17+127.074+86.2925+145.416+86.2925Z" opacity="1" fill="#000000"/>
<path d="M121.221+119.501C121.221+106.13+132.06+95.2913+145.431+95.2913C158.801+95.2913+169.641+106.13+169.641+119.501C169.641+132.872+158.801+143.711+145.431+143.711C132.06+143.711+121.221+132.872+121.221+119.501Z" opacity="1" fill="#000000"/>
</svg>
