<svg xmlns="http://www.w3.org/2000/svg" version="1.1" width="190" height="190" viewBox="0 0 190 190">
<defs>
  <linearGradient id="gradient-evening" gradientTransform="rotate(45)">
    <stop offset="0%"  stop-color="var(--scene-evening-gradient)" />
    <stop offset="100%" stop-color="var(--scene-evening-gradient)" stop-opacity="0" />
  </linearGradient>
</defs>

<rect width="190" height="190" x="0" y="0" />
<rect fill="url('#gradient-evening')" width="269" height="269" x="0" y="0" />
<rect width="150" height="7" x="20" y="163" style="fill:currentcolor" />

<path d="m 130.00006,119.45006 c -1.45001,0 -2.50001,1.10001 -2.50001,2.50001 l 0,10.90003 c 0,1.39995 1.05,2.49997 2.50001,2.49997 1.39995,0 2.49996,-1.10002 2.49996,-2.49997 l 0,-10.90003 c 0,-1.4 -1.10001,-2.50001 -2.49996,-2.50001 z m 26.55003,10.95004 c -0.65001,0 -1.30001,0.24999 -1.80001,0.75001 l -7.65,7.74998 c -0.95001,1 -1.05001,2.50001 0,3.54998 0.95001,0.94999 2.59995,0.94999 3.54996,0 l 7.59986,-7.75001 c 1.00001,-0.95001 1.05001,-2.44996 0,-3.54995 -0.45,-0.50002 -1.05001,-0.75001 -1.69981,-0.75001 z M 103.50005,130.5 c -0.65001,0 -1.30002,0.20008 -1.75002,0.65 -1.05001,1.05001 -1.00001,2.59994 0,3.54996 l 7.7,7.75001 c 0.5,0.49999 1.10001,0.69999 1.75001,0.69999 0.60001,0 1.20001,-0.20008 1.79995,-0.69999 0.90001,-1.04996 0.90001,-2.64997 0,-3.54998 l -7.75,-7.74999 c -0.45,-0.45 -1.10001,-0.65 -1.74994,-0.65 z m 26.50001,9.50001 c -5.40004,0 -9.95001,1.9 -13.80004,5.69998 -3.74997,3.80004 -5.64998,8.34999 -5.64998,13.75003 0,0.20008 0,0.35002 0,0.54995 l 38.84999,0 c 0,-0.19984 0,-0.34994 0,-0.54995 0,-5.40004 -1.89995,-9.94999 -5.69998,-13.75003 -3.80003,-3.79998 -8.35,-5.69998 -13.69999,-5.69998 z m -37.500059,16.95 c -1.399998,0 -2.500001,1.05001 -2.500001,2.50001 0,0.20008 0.05001,0.40002 0.05001,0.54995 l 15.8,0 c 0,-0.15 0.05,-0.34994 0.05,-0.54995 0,-1.45 -1.10001,-2.50001 -2.49995,-2.50001 l -10.900049,0 z m 64.199889,0 c -1.39981,0 -2.49982,1.05001 -2.49982,2.50001 0,0.20008 0,0.40002 0.05,0.54995 l 15.69993,0 c 0,-0.15 0.05,-0.34994 0.05,-0.54995 0,-1.45 -1.1,-2.50001 -2.50002,-2.50001 l -10.80009,0 z" style="fill:currentcolor;" />
</svg>