<svg xmlns="http://www.w3.org/2000/svg" xmlns:xlink="http://www.w3.org/1999/xlink" version="1.1" width="190" height="190" viewBox="0 0 190 190">
  <defs id="stateMorningDef">
    <linearGradient id="stateMorningGrad1">
      <stop style="stop-color:var(--scene-morning-gradient);stop-opacity:1;" offset="0" id="stop4159" />
      <stop style="stop-color:var(--scene-morning-gradient);stop-opacity:0;" offset="1" id="stop4161" />
    </linearGradient>
    <linearGradient xlink:href="#stateMorningGrad1" id="stateMorningGrad2" x1="0" y1="0" x2="190" y2="190" gradientUnits="userSpaceOnUse" />
  </defs>
  
  <rect style="opacity:1;fill:var(--scene-morning-bg);fill-opacity:1;stroke:none;stroke-width:22.74799919;stroke-miterlimit:4;stroke-dasharray:none;stroke-opacity:1" id="rect4869" width="190" height="190" x="0" y="0" />
  
  <rect style="display:inline;opacity:1;fill:url(#stateMorningGrad2);fill-opacity:1;stroke:none;stroke-width:22.74799919;stroke-miterlimit:4;stroke-dasharray:none;stroke-opacity:1" id="rect4869-9" width="190" height="190" x="0" y="1.9073486e-006" />
  
  <g style="display:inline;opacity:1" id="g4233" transform="matrix(0.46318116,0,0,0.46318116,28.563032,64.482716)">
    <path style="fill:#ffffff;fill-opacity:1;fill-rule:nonzero;stroke:none" d="m 67.829693,120.78853 c -3.048001,0 -5.397456,2.37063 -5.397456,5.39745 l 0,23.53797 c 0,3.02684 2.349455,5.39746 5.397456,5.39746 3.02683,0 5.481795,-2.37062 5.481795,-5.39746 l 0,-23.53797 c 0,-3.02682 -2.454965,-5.39745 -5.481795,-5.39745 z m 57.345157,23.62792 c -1.37583,-0.0106 -2.77726,0.53463 -3.89909,1.66703 l -16.46787,16.6787 c -2.11667,2.13784 -2.26485,5.39843 0,7.66326 2.05316,2.05317 5.58762,2.07434 7.64077,0 l 16.46787,-16.6787 c 2.11666,-2.13783 2.18015,-5.31376 0,-7.66326 -1.01601,-1.09007 -2.36585,-1.65644 -3.74168,-1.66703 z m -114.53289,0.20522 c -1.4207915,0 -2.8410983,0.48816 -3.8147648,1.46181 -2.2648042,2.26483 -2.116639,5.5466 0,7.66326 l 16.6590238,16.6787 c 1.079499,1.05834 2.349966,1.56583 3.831631,1.56583 1.269999,0 2.540464,-0.50749 3.831632,-1.56583 1.947333,-2.26483 1.947333,-5.69476 0,-7.66326 L 14.47078,146.08348 c -0.98425,-0.97365 -2.408028,-1.46181 -3.82882,-1.46181 z m 57.187733,20.51314 c -11.578164,0 -21.48338,4.10442 -29.716931,12.33825 -8.149166,8.14889 -12.276402,18.05444 -12.276402,29.6326 0,0.42827 0.01689,0.84956 0.02811,1.27346 l 83.91358,0 c 0.0113,-0.42379 0.0281,-0.84519 0.0281,-1.27346 0,-11.57816 -4.17206,-21.44138 -12.363556,-29.6326 -8.191496,-8.1915 -18.056203,-12.33825 -29.612914,-12.33825 z m -80.919672,36.57339 c -3.047989,0 -5.397456,2.34946 -5.397456,5.39746 0,0.44037 0.06305,0.8631 0.157426,1.27346 l 34.018028,0 c 0.09438,-0.41036 0.157426,-0.83309 0.157426,-1.27346 0,-3.048 -2.349455,-5.39746 -5.397456,-5.39746 l -23.537968,0 z m 138.576879,0 c -3.02685,0 -5.39746,2.34946 -5.39746,5.39746 0,0.44032 0.0624,0.86314 0.15742,1.27346 l 33.82688,0 c 0.0944,-0.41036 0.15742,-0.83309 0.15742,-1.27346 0,-3.048 -2.34947,-5.39746 -5.39746,-5.39746 l -23.3468,0 z" id="path4201" />
  </g>
  
  <rect style="display:inline;opacity:1;fill:#ffffff;fill-opacity:1;stroke:none;stroke-width:7;stroke-linecap:butt;stroke-linejoin:round;stroke-miterlimit:10.19999981;stroke-dasharray:none;stroke-opacity:1" id="rect4146" width="150" height="6" x="20" y="164" />
</svg>