<svg xmlns="http://www.w3.org/2000/svg" version="1.1" width="190" height="190" viewBox="0 0 190 190">
<defs>
  <linearGradient id="gradient-night" gradientTransform="rotate(45)">
    <stop offset="0%"  stop-color="var(--scene-night-gradient)" />
    <stop offset="100%" stop-color="var(--scene-night-gradient)" stop-opacity="0" />
  </linearGradient>
</defs>

<rect width="190" height="190" x="0" y="0" />
<rect fill="url('#gradient-night')" width="269" height="269" x="0" y="0" />
<rect width="150" height="7" x="20" y="163" style="fill:currentcolor" />

<circle style="opacity:0.15; fill:currentcolor" cx="95" cy="72.5" r="37.499996" />
<path style="opacity:1; fill:currentcolor;" d="m 95.001037,35.000449 a 37.499996,37.499996 0 0 0 -0.954958,0.0328 36.864395,36.864395 0 0 1 31.306441,36.39955 36.864395,36.864395 0 0 1 -36.864397,36.864411 36.864395,36.864395 0 0 1 -6.192067,-0.56337 37.499996,37.499996 0 0 0 12.704981,2.26613 37.499996,37.499996 0 0 0 37.498513,-37.501051 37.499996,37.499996 0 0 0 -37.498513,-37.49851 z" />

</svg>