<svg style="fill-rule:evenodd;" xmlns="http://www.w3.org/2000/svg" version="1.1" viewBox="0 0 256 256">
<style>
path {
  fill: black;
}
@media (prefers-color-scheme: dark) {
  path {
    fill: white;
  }
}
</style>
<path d="M95.4375+85.4286C72.59+85.4286+54+104.529+54+128C54+151.471+72.59+170.571+95.4375+170.571L160.563+170.571C183.41+170.571+202+151.471+202+128C202+104.529+183.41+85.4286+160.563+85.4286L95.4375+85.4286ZM159.429+90.8571C179.91+90.8571+196.571+107.518+196.571+128C196.571+148.482+179.91+165.143+159.429+165.143C138.947+165.143+122.286+148.482+122.286+128C122.286+107.518+138.947+90.8571+159.429+90.8571Z" opacity="1" fill="#000000"/>
<path d="M159.714+95.1429C141.596+95.1429+126.857+109.882+126.857+128C126.857+146.118+141.596+160.857+159.714+160.857C177.833+160.857+192.571+146.118+192.571+128C192.571+109.882+177.833+95.1429+159.714+95.1429Z" opacity="1" fill="#000000"/>
<path d="M128+0C57.3075+0+3.8147e-06+57.3075+3.8147e-06+128C3.8147e-06+198.692+57.3075+256+128+256C198.692+256+256+198.692+256+128C256+57.3076+198.692+0+128+0ZM128+36.5714C178.495+36.5714+219.429+77.5054+219.429+128C219.429+178.495+178.495+219.429+128+219.429C77.5054+219.429+36.5714+178.495+36.5714+128C36.5714+77.5054+77.5054+36.5715+128+36.5714Z" opacity="1" fill="#000000"/>
</svg>
