<svg style="fill-rule:evenodd;" xmlns="http://www.w3.org/2000/svg" version="1.1" viewBox="0 0 1024 1024">
<defs>
<linearGradient y1="371.415" id="LinearGradient" x1="512" y2="648.288" x2="512.614" gradientUnits="userSpaceOnUse" gradientTransform="matrix(1.184 0 0 1.21633 -94.208 -110.759)">
<stop stop-color="#ffdb00" offset="0"/>
<stop stop-color="#f9c100" offset="1"/>
</linearGradient>
<linearGradient y1="371.415" id="LinearGradient_2" x1="512" y2="648.288" x2="512.614" gradientUnits="userSpaceOnUse" gradientTransform="matrix(1.09714 0 0 1.06122 -49.7371 -31.347)">
<stop stop-color="#f9c100" offset="0.00242718"/>
<stop stop-color="#ffdb00" offset="1"/>
</linearGradient>
<linearGradient y1="642" id="LinearGradient_3" x1="622" y2="382" x2="622" gradientUnits="userSpaceOnUse" gradientTransform="matrix(1.14286 0 0 1.14286 -73.1428 -73.1429)">
<stop stop-color="#dcdcdc" offset="0"/>
<stop stop-color="#ffffff" offset="1"/>
</linearGradient>
<linearGradient y1="397" id="LinearGradient_4" x1="623" y2="627" x2="623" gradientUnits="userSpaceOnUse" gradientTransform="matrix(1.14286 0 0 1.14286 -73.1428 -73.1429)">
<stop stop-color="#dcdcdc" offset="0"/>
<stop stop-color="#ffffff" offset="1"/>
</linearGradient>
<linearGradient y1="64" id="LinearGradient_5" x1="512" y2="960" x2="512" gradientUnits="userSpaceOnUse" gradientTransform="matrix(1.14286 0 0 1.14286 -73.1428 -73.1429)">
<stop stop-color="#ffffff" offset="0.00728155"/>
<stop stop-color="#000000" offset="1"/>
</linearGradient>
<linearGradient y1="960" id="LinearGradient_6" x1="512" y2="192.438" x2="512" gradientUnits="userSpaceOnUse" gradientTransform="matrix(1.14286 0 0 1.14286 -73.1428 -73.1429)">
<stop stop-color="#ffffff" offset="0"/>
<stop stop-color="#000000" offset="1"/>
</linearGradient>
<linearGradient y1="831.469" id="LinearGradient_7" x1="512" y2="192.531" x2="512" gradientUnits="userSpaceOnUse" gradientTransform="matrix(1.14286 0 0 1.14286 -73.1428 -73.1429)">
<stop stop-color="#ffffff" offset="0"/>
<stop stop-color="#000000" offset="1"/>
</linearGradient>
</defs>
<path d="M642.24+341.714L381.76+341.714C290.37+341.714+216+418.115+216+512C216+605.885+290.37+682.286+381.76+682.286L642.24+682.286C733.63+682.286+808+605.885+808+512C808+418.115+733.63+341.714+642.24+341.714ZM642.24+657.959C563.893+657.959+500.16+592.487+500.16+512C500.16+431.513+563.893+366.041+642.24+366.041C720.587+366.041+784.32+431.513+784.32+512C784.32+592.487+720.587+657.959+642.24+657.959Z" opacity="1" fill="url(#LinearGradient)"/>
<path d="M632.686+363.429L391.314+363.429C306.629+363.429+237.714+430.087+237.714+512C237.714+593.913+306.629+660.571+391.314+660.571L632.686+660.571C717.371+660.571+786.286+593.913+786.286+512C786.286+430.087+717.371+363.429+632.686+363.429ZM632.686+639.347C560.086+639.347+501.029+582.223+501.029+512C501.029+441.777+560.086+384.653+632.686+384.653C705.286+384.653+764.343+441.777+764.343+512C764.343+582.223+705.286+639.347+632.686+639.347Z" opacity="1" fill="url(#LinearGradient_2)"/>
<path d="M637.714+363.429C555.787+363.429+489.143+430.073+489.143+512C489.143+593.927+555.787+660.571+637.714+660.571C719.641+660.571+786.286+593.927+786.286+512C786.286+430.073+719.641+363.429+637.714+363.429Z" opacity="1" fill="url(#LinearGradient_3)"/>
<path d="M638.857+380.571C566.383+380.571+507.429+439.526+507.429+512C507.429+584.474+566.383+643.429+638.857+643.429C711.331+643.429+770.286+584.474+770.286+512C770.286+439.526+711.331+380.571+638.857+380.571Z" opacity="1" fill="url(#LinearGradient_4)"/>
<path d="M512+0C229.23+0+1.52588e-05+229.23+1.52588e-05+512C1.52588e-05+794.77+229.23+1024+512+1024C794.77+1024+1024+794.77+1024+512C1024+229.23+794.77+0+512+0ZM512+146.286C713.978+146.286+877.714+310.022+877.714+512C877.714+713.978+713.978+877.714+512+877.714C310.022+877.714+146.286+713.978+146.286+512C146.286+310.022+310.022+146.286+512+146.286Z" opacity="1" fill="url(#LinearGradient_5)"/>
<path d="M492.929+146.786C259.416+156.786+73.1429+349.169+73.1429+585.143C73.1429+827.517+269.626+1024+512+1024C754.374+1024+950.857+827.517+950.857+585.143C950.857+349.169+764.584+156.786+531.071+146.786C724.185+156.707+877.714+316.419+877.714+512C877.714+713.978+713.978+877.714+512+877.714C310.022+877.714+146.286+713.978+146.286+512C146.286+316.419+299.815+156.707+492.929+146.786Z" opacity="1" fill="url(#LinearGradient_6)"/>
<path d="M491.214+146.893C283.159+156.612+113.046+311.139+79.3214+512C113.046+712.861+283.159+867.388+491.214+877.107C488.173+876.937+485.163+876.637+482.143+876.393C479.635+876.19+477.1+876.075+474.607+875.821C473.839+875.743+473.088+875.618+472.321+875.536C467.048+874.967+461.811+874.327+456.607+873.536C454.487+873.213+452.394+872.787+450.286+872.429C446.599+871.802+442.898+871.201+439.25+870.464C434.718+869.55+430.256+868.474+425.786+867.393C424.637+867.115+423.465+866.895+422.321+866.607C418.442+865.629+414.615+864.53+410.786+863.429C408.82+862.864+406.844+862.347+404.893+861.75C401.046+860.573+397.256+859.263+393.464+857.964C391.804+857.396+390.114+856.878+388.464+856.286C385.146+855.095+381.881+853.783+378.607+852.5C376.201+851.557+373.774+850.671+371.393+849.679C368.912+848.645+366.488+847.515+364.036+846.429C361.096+845.126+358.148+843.841+355.25+842.464C352.665+841.236+350.123+839.93+347.571+838.643C345.106+837.399+342.647+836.154+340.214+834.857C337.158+833.228+334.146+831.534+331.143+829.821C329.225+828.728+327.288+827.663+325.393+826.536C322.439+824.779+319.542+822.944+316.643+821.107C314.452+819.72+312.266+818.325+310.107+816.893C307.53+815.183+304.995+813.416+302.464+811.643C300.454+810.235+298.445+808.84+296.464+807.393C293.656+805.34+290.889+803.237+288.143+801.107C286.325+799.698+284.504+798.3+282.714+796.857C280.007+794.675+277.357+792.435+274.714+790.179C272.944+788.667+271.17+787.152+269.429+785.607C267.089+783.531+264.785+781.42+262.5+779.286C260.494+777.413+258.499+775.524+256.536+773.607C254.326+771.449+252.155+769.249+250+767.036C248.149+765.135+246.309+763.226+244.5+761.286C242.373+759.004+240.283+756.692+238.214+754.357C236.551+752.48+234.911+750.59+233.286+748.679C231.221+746.249+229.181+743.805+227.179+741.321C225.506+739.247+223.878+737.147+222.25+735.036C220.278+732.477+218.334+729.897+216.429+727.286C214.879+725.162+213.361+723.015+211.857+720.857C210.271+718.582+208.678+716.312+207.143+714C205.399+711.374+203.713+708.709+202.036+706.036C200.559+703.681+199.103+701.319+197.679+698.929C196.127+696.325+194.632+693.681+193.143+691.036C191.808+688.663+190.462+686.298+189.179+683.893C187.656+681.04+186.198+678.147+184.75+675.25C183.646+673.041+182.525+670.841+181.464+668.607C179.964+665.448+178.554+662.244+177.143+659.036C176.191+656.872+175.232+654.721+174.321+652.536C173.165+649.762+172.089+646.951+171+644.143C169.859+641.202+168.709+638.263+167.643+635.286C166.86+633.1+166.135+630.883+165.393+628.679C164.307+625.452+163.212+622.23+162.214+618.964C161.427+616.388+160.731+613.779+160+611.179C159.092+607.95+158.178+604.728+157.357+601.464C156.751+599.054+156.237+596.607+155.679+594.179C154.949+591.003+154.182+587.85+153.536+584.643C152.863+581.307+152.295+577.939+151.714+574.571C151.261+571.944+150.754+569.325+150.357+566.679C149.941+563.902+149.675+561.082+149.321+558.286C148.912+555.047+148.431+551.836+148.107+548.571C147.741+544.883+147.506+541.149+147.25+537.429C147.093+535.151+146.865+532.896+146.75+530.607C146.441+524.439+146.286+518.245+146.286+512C146.286+505.755+146.441+499.561+146.75+493.393C146.865+491.104+147.093+488.849+147.25+486.571C147.506+482.851+147.741+479.117+148.107+475.429C148.431+472.164+148.912+468.953+149.321+465.714C149.675+462.918+149.941+460.098+150.357+457.321C150.754+454.675+151.261+452.056+151.714+449.429C152.295+446.061+152.863+442.692+153.536+439.357C154.182+436.15+154.949+432.997+155.679+429.821C156.237+427.393+156.751+424.946+157.357+422.536C158.178+419.272+159.092+416.05+160+412.821C160.731+410.221+161.427+407.612+162.214+405.036C163.212+401.77+164.307+398.548+165.393+395.321C166.135+393.117+166.86+390.9+167.643+388.714C168.709+385.737+169.859+382.798+171+379.857C172.089+377.049+173.165+374.238+174.321+371.464C175.232+369.279+176.191+367.128+177.143+364.964C178.554+361.756+179.964+358.552+181.464+355.393C182.525+353.159+183.646+350.959+184.75+348.75C186.198+345.853+187.656+342.96+189.179+340.107C190.462+337.702+191.808+335.337+193.143+332.964C194.632+330.319+196.127+327.675+197.679+325.071C199.103+322.681+200.559+320.319+202.036+317.964C203.713+315.291+205.399+312.626+207.143+310C208.678+307.688+210.271+305.418+211.857+303.143C213.361+300.985+214.879+298.838+216.429+296.714C218.334+294.103+220.278+291.523+222.25+288.964C223.878+286.853+225.506+284.753+227.179+282.679C229.181+280.195+231.221+277.751+233.286+275.321C234.911+273.41+236.551+271.52+238.214+269.643C240.283+267.308+242.373+264.996+244.5+262.714C246.309+260.774+248.149+258.865+250+256.964C252.155+254.751+254.326+252.551+256.536+250.393C258.499+248.476+260.494+246.587+262.5+244.714C264.785+242.58+267.089+240.469+269.429+238.393C271.17+236.848+272.944+235.333+274.714+233.821C277.357+231.565+280.007+229.325+282.714+227.143C284.504+225.7+286.325+224.302+288.143+222.893C290.889+220.763+293.656+218.659+296.464+216.607C298.445+215.16+300.454+213.765+302.464+212.357C304.995+210.584+307.53+208.817+310.107+207.107C312.266+205.675+314.452+204.28+316.643+202.893C319.542+201.056+322.439+199.221+325.393+197.464C327.288+196.337+329.225+195.272+331.143+194.179C334.146+192.466+337.158+190.772+340.214+189.143C342.647+187.846+345.106+186.601+347.571+185.357C350.123+184.07+352.665+182.764+355.25+181.536C358.148+180.159+361.096+178.874+364.036+177.571C366.488+176.485+368.912+175.355+371.393+174.321C373.774+173.329+376.201+172.443+378.607+171.5C381.881+170.217+385.146+168.905+388.464+167.714C390.114+167.122+391.804+166.604+393.464+166.036C397.256+164.737+401.046+163.427+404.893+162.25C406.844+161.653+408.82+161.136+410.786+160.571C414.615+159.47+418.442+158.371+422.321+157.393C423.466+157.105+424.637+156.885+425.786+156.607C430.256+155.526+434.718+154.45+439.25+153.536C442.898+152.799+446.599+152.198+450.286+151.571C452.394+151.213+454.487+150.787+456.607+150.464C461.811+149.673+467.048+149.033+472.321+148.464C473.088+148.382+473.839+148.257+474.607+148.179C477.1+147.925+479.635+147.81+482.143+147.607C485.163+147.363+488.173+147.063+491.214+146.893ZM532.786+146.893C535.827+147.063+538.837+147.363+541.857+147.607C544.366+147.81+546.899+147.925+549.393+148.179C550.161+148.257+550.912+148.382+551.679+148.464C556.952+149.033+562.189+149.673+567.393+150.464C569.515+150.787+571.604+151.213+573.714+151.571C577.401+152.198+581.102+152.799+584.75+153.536C589.282+154.45+593.744+155.526+598.214+156.607C599.365+156.885+600.532+157.104+601.679+157.393C605.558+158.371+609.385+159.47+613.214+160.571C615.18+161.136+617.156+161.653+619.107+162.25C622.954+163.427+626.744+164.737+630.536+166.036C632.196+166.604+633.886+167.122+635.536+167.714C638.854+168.905+642.119+170.217+645.393+171.5C647.799+172.443+650.226+173.329+652.607+174.321C655.088+175.355+657.512+176.485+659.964+177.571C662.904+178.874+665.852+180.159+668.75+181.536C671.335+182.764+673.877+184.07+676.429+185.357C678.894+186.601+681.353+187.846+683.786+189.143C686.842+190.772+689.854+192.466+692.857+194.179C694.775+195.272+696.712+196.337+698.607+197.464C701.561+199.221+704.458+201.056+707.357+202.893C709.548+204.28+711.734+205.675+713.893+207.107C716.47+208.817+719.005+210.584+721.536+212.357C723.546+213.765+725.555+215.16+727.536+216.607C730.344+218.659+733.111+220.763+735.857+222.893C737.675+224.302+739.496+225.7+741.286+227.143C743.993+229.325+746.643+231.565+749.286+233.821C751.056+235.333+752.83+236.848+754.571+238.393C756.911+240.469+759.215+242.58+761.5+244.714C763.506+246.587+765.501+248.476+767.464+250.393C769.674+252.551+771.845+254.751+774+256.964C775.851+258.865+777.691+260.774+779.5+262.714C781.627+264.996+783.717+267.308+785.786+269.643C787.449+271.52+789.089+273.41+790.714+275.321C792.779+277.751+794.819+280.195+796.821+282.679C798.494+284.753+800.122+286.853+801.75+288.964C803.722+291.523+805.666+294.103+807.571+296.714C809.121+298.838+810.639+300.985+812.143+303.143C813.729+305.418+815.322+307.688+816.857+310C818.601+312.626+820.287+315.291+821.964+317.964C823.441+320.319+824.897+322.681+826.321+325.071C827.873+327.675+829.369+330.319+830.857+332.964C832.192+335.337+833.538+337.702+834.821+340.107C836.344+342.96+837.802+345.853+839.25+348.75C840.354+350.959+841.475+353.159+842.536+355.393C844.036+358.552+845.446+361.756+846.857+364.964C847.809+367.128+848.768+369.279+849.679+371.464C850.835+374.238+851.911+377.049+853+379.857C854.141+382.798+855.291+385.737+856.357+388.714C857.14+390.9+857.865+393.117+858.607+395.321C859.693+398.548+860.788+401.77+861.786+405.036C862.573+407.612+863.269+410.221+864+412.821C864.908+416.05+865.822+419.272+866.643+422.536C867.249+424.946+867.763+427.393+868.321+429.821C869.051+432.997+869.818+436.15+870.464+439.357C871.137+442.693+871.705+446.061+872.286+449.429C872.739+452.056+873.246+454.675+873.643+457.321C874.059+460.098+874.325+462.918+874.679+465.714C875.088+468.953+875.569+472.164+875.893+475.429C876.259+479.119+876.494+482.849+876.75+486.571C876.907+488.848+877.135+491.105+877.25+493.393C877.559+499.561+877.714+505.755+877.714+512C877.714+518.245+877.559+524.439+877.25+530.607C877.135+532.894+876.907+535.152+876.75+537.429C876.494+541.151+876.259+544.881+875.893+548.571C875.569+551.836+875.088+555.047+874.679+558.286C874.325+561.082+874.059+563.902+873.643+566.679C873.246+569.325+872.739+571.944+872.286+574.571C871.705+577.939+871.137+581.307+870.464+584.643C869.818+587.85+869.051+591.003+868.321+594.179C867.763+596.607+867.249+599.054+866.643+601.464C865.822+604.728+864.908+607.95+864+611.179C863.269+613.779+862.573+616.388+861.786+618.964C860.788+622.23+859.693+625.452+858.607+628.679C857.865+630.883+857.14+633.1+856.357+635.286C855.291+638.263+854.141+641.202+853+644.143C851.911+646.951+850.835+649.762+849.679+652.536C848.768+654.721+847.809+656.872+846.857+659.036C845.446+662.244+844.036+665.448+842.536+668.607C841.475+670.841+840.354+673.041+839.25+675.25C837.802+678.147+836.344+681.04+834.821+683.893C833.538+686.298+832.192+688.663+830.857+691.036C829.369+693.681+827.873+696.325+826.321+698.929C824.897+701.318+823.441+703.681+821.964+706.036C820.287+708.709+818.601+711.374+816.857+714C815.322+716.312+813.729+718.582+812.143+720.857C810.639+723.015+809.121+725.162+807.571+727.286C805.666+729.897+803.722+732.477+801.75+735.036C800.122+737.147+798.494+739.247+796.821+741.321C794.819+743.805+792.779+746.249+790.714+748.679C789.089+750.59+787.449+752.48+785.786+754.357C783.717+756.692+781.627+759.004+779.5+761.286C777.691+763.226+775.851+765.135+774+767.036C771.845+769.249+769.674+771.449+767.464+773.607C765.501+775.524+763.506+777.413+761.5+779.286C759.215+781.42+756.911+783.531+754.571+785.607C752.83+787.152+751.056+788.667+749.286+790.179C746.643+792.435+743.993+794.675+741.286+796.857C739.496+798.3+737.675+799.698+735.857+801.107C733.111+803.237+730.344+805.34+727.536+807.393C725.555+808.84+723.546+810.235+721.536+811.643C719.005+813.416+716.47+815.183+713.893+816.893C711.734+818.325+709.548+819.72+707.357+821.107C704.458+822.944+701.561+824.779+698.607+826.536C696.712+827.663+694.775+828.728+692.857+829.821C689.854+831.534+686.842+833.228+683.786+834.857C681.353+836.154+678.894+837.399+676.429+838.643C673.877+839.93+671.335+841.236+668.75+842.464C665.852+843.841+662.904+845.126+659.964+846.429C657.512+847.515+655.088+848.645+652.607+849.679C650.226+850.671+647.799+851.557+645.393+852.5C642.119+853.783+638.854+855.095+635.536+856.286C633.886+856.878+632.196+857.396+630.536+857.964C626.744+859.263+622.954+860.573+619.107+861.75C617.156+862.347+615.18+862.864+613.214+863.429C609.385+864.53+605.558+865.629+601.679+866.607C600.532+866.896+599.365+867.115+598.214+867.393C593.744+868.474+589.282+869.55+584.75+870.464C581.102+871.201+577.401+871.802+573.714+872.429C571.604+872.787+569.515+873.213+567.393+873.536C562.189+874.327+556.952+874.967+551.679+875.536C550.912+875.618+550.161+875.743+549.393+875.821C546.899+876.075+544.366+876.19+541.857+876.393C538.837+876.637+535.827+876.937+532.786+877.107C740.841+867.388+910.954+712.861+944.679+512C910.954+311.139+740.841+156.612+532.786+146.893Z" opacity="1" fill="url(#LinearGradient_7)"/>
</svg>
