<svg style="fill-rule:evenodd;" xmlns="http://www.w3.org/2000/svg" version="1.1" viewBox="0 0 1024 1024">
<defs>
<linearGradient y1="371.415" id="LinearGradient" x1="512" y2="648.288" x2="512.614" gradientUnits="userSpaceOnUse" gradientTransform="matrix(1.036 0 0 1.06429 -18.432 -32.9143)">
<stop stop-color="#ffdb00" offset="0"/>
<stop stop-color="#f9c100" offset="1"/>
</linearGradient>
<linearGradient y1="371.415" id="LinearGradient_2" x1="512" y2="648.288" x2="512.614" gradientUnits="userSpaceOnUse" gradientTransform="matrix(0.96 0 0 0.928571 20.48 36.5714)">
<stop stop-color="#f9c100" offset="0.00242718"/>
<stop stop-color="#ffdb00" offset="1"/>
</linearGradient>
<linearGradient y1="642" id="LinearGradient_3" x1="622" y2="382" x2="622" gradientUnits="userSpaceOnUse" gradientTransform="matrix(1 0 0 1 0 0)">
<stop stop-color="#dcdcdc" offset="0"/>
<stop stop-color="#ffffff" offset="1"/>
</linearGradient>
<linearGradient y1="397" id="LinearGradient_4" x1="623" y2="627" x2="623" gradientUnits="userSpaceOnUse" gradientTransform="matrix(1 0 0 1 0 0)">
<stop stop-color="#dcdcdc" offset="0"/>
<stop stop-color="#ffffff" offset="1"/>
</linearGradient>
<linearGradient y1="64" id="LinearGradient_5" x1="512" y2="960" x2="512" gradientUnits="userSpaceOnUse" gradientTransform="matrix(1 0 0 1 5.68434e-13 0)">
<stop stop-color="#ffffff" offset="0.00728155"/>
<stop stop-color="#000000" offset="1"/>
</linearGradient>
<linearGradient y1="960" id="LinearGradient_6" x1="512" y2="192.438" x2="512" gradientUnits="userSpaceOnUse" gradientTransform="matrix(1 0 0 1 2.27374e-13 0)">
<stop stop-color="#ffffff" offset="0"/>
<stop stop-color="#000000" offset="1"/>
</linearGradient>
<linearGradient y1="831.469" id="LinearGradient_7" x1="512" y2="192.531" x2="512" gradientUnits="userSpaceOnUse" gradientTransform="matrix(1 0 0 1 4.54747e-13 0)">
<stop stop-color="#ffffff" offset="0"/>
<stop stop-color="#000000" offset="1"/>
</linearGradient>
</defs>
<path d="M625.96+363L398.04+363C318.074+363+253+429.85+253+512C253+594.15+318.074+661+398.04+661L625.96+661C705.926+661+771+594.15+771+512C771+429.85+705.926+363+625.96+363ZM625.96+639.714C557.406+639.714+501.64+582.426+501.64+512C501.64+441.574+557.406+384.286+625.96+384.286C694.514+384.286+750.28+441.574+750.28+512C750.28+582.426+694.514+639.714+625.96+639.714Z" opacity="1" fill="url(#LinearGradient)"/>
<path d="M617.6+382L406.4+382C332.3+382+272+440.326+272+512C272+583.674+332.3+642+406.4+642L617.6+642C691.7+642+752+583.674+752+512C752+440.326+691.7+382+617.6+382ZM617.6+623.429C554.075+623.429+502.4+573.445+502.4+512C502.4+450.555+554.075+400.571+617.6+400.571C681.125+400.571+732.8+450.555+732.8+512C732.8+573.445+681.125+623.429+617.6+623.429Z" opacity="1" fill="url(#LinearGradient_2)"/>
<path d="M622+382C550.314+382+492+440.314+492+512C492+583.686+550.314+642+622+642C693.686+642+752+583.686+752+512C752+440.314+693.686+382+622+382Z" opacity="1" fill="url(#LinearGradient_3)"/>
<path d="M623+397C559.585+397+508+448.585+508+512C508+575.415+559.585+627+623+627C686.415+627+738+575.415+738+512C738+448.585+686.415+397+623+397Z" opacity="1" fill="url(#LinearGradient_4)"/>
<path d="M512+64C264.576+64+64+264.576+64+512C64+759.424+264.576+960+512+960C759.424+960+960+759.424+960+512C960+264.576+759.424+64+512+64ZM512+192C688.731+192+832+335.269+832+512C832+688.731+688.731+832+512+832C335.269+832+192+688.731+192+512C192+335.269+335.269+192+512+192Z" opacity="1" fill="url(#LinearGradient_5)"/>
<path d="M495.313+192.437C290.989+201.187+128+369.523+128+576C128+788.077+299.923+960+512+960C724.077+960+896+788.077+896+576C896+369.523+733.011+201.188+528.688+192.437C697.662+201.119+832+340.866+832+512C832+688.731+688.731+832+512+832C335.269+832+192+688.731+192+512C192+340.866+326.338+201.119+495.313+192.437Z" opacity="1" fill="url(#LinearGradient_6)"/>
<path d="M493.813+192.531C311.764+201.035+162.915+336.247+133.406+512C162.915+687.753+311.764+822.965+493.813+831.469C491.152+831.32+488.518+831.058+485.875+830.844C483.681+830.666+481.463+830.565+479.281+830.344C478.609+830.275+477.952+830.166+477.281+830.094C472.667+829.596+468.085+829.036+463.531+828.344C461.676+828.062+459.845+827.689+458+827.375C454.775+826.827+451.536+826.3+448.344+825.656C444.378+824.856+440.474+823.914+436.563+822.969C435.558+822.726+434.532+822.534+433.531+822.281C430.137+821.425+426.788+820.463+423.438+819.5C421.718+819.006+419.989+818.554+418.281+818.031C414.916+817.002+411.599+815.855+408.281+814.719C406.828+814.221+405.35+813.768+403.906+813.25C401.002+812.208+398.146+811.061+395.281+809.938C393.175+809.112+391.053+808.337+388.969+807.469C386.798+806.564+384.677+805.576+382.531+804.625C379.959+803.486+377.379+802.361+374.844+801.156C372.582+800.081+370.357+798.939+368.125+797.812C365.968+796.724+363.817+795.635+361.688+794.5C359.014+793.074+356.378+791.593+353.75+790.094C352.072+789.137+350.377+788.205+348.719+787.219C346.134+785.682+343.6+784.076+341.063+782.469C339.146+781.255+337.233+780.034+335.344+778.781C333.089+777.285+330.871+775.739+328.656+774.188C326.897+772.955+325.139+771.735+323.406+770.469C320.949+768.673+318.528+766.832+316.125+764.969C314.535+763.736+312.941+762.512+311.375+761.25C309.006+759.341+306.687+757.381+304.375+755.406C302.826+754.083+301.274+752.758+299.75+751.406C297.703+749.59+295.687+747.743+293.688+745.875C291.933+744.236+290.186+742.584+288.469+740.906C286.535+739.018+284.635+737.093+282.75+735.156C281.131+733.493+279.521+731.823+277.938+730.125C276.076+728.129+274.248+726.106+272.438+724.062C270.982+722.42+269.547+720.766+268.125+719.094C266.318+716.968+264.533+714.829+262.781+712.656C261.318+710.841+259.893+709.004+258.469+707.156C256.743+704.918+255.042+702.66+253.375+700.375C252.019+698.517+250.691+696.638+249.375+694.75C247.987+692.76+246.593+690.773+245.25+688.75C243.724+686.452+242.249+684.12+240.781+681.781C239.489+679.721+238.215+677.654+236.969+675.562C235.611+673.284+234.303+670.971+233+668.656C231.832+666.58+230.654+664.511+229.531+662.406C228.199+659.91+226.924+657.379+225.656+654.844C224.69+652.911+223.709+650.986+222.781+649.031C221.469+646.267+220.235+643.464+219+640.656C218.167+638.763+217.328+636.881+216.531+634.969C215.52+632.541+214.578+630.082+213.625+627.625C212.627+625.051+211.62+622.48+210.688+619.875C210.003+617.963+209.368+616.022+208.719+614.094C207.769+611.271+206.81+608.451+205.938+605.594C205.249+603.34+204.64+601.056+204+598.781C203.205+595.956+202.406+593.137+201.688+590.281C201.157+588.172+200.707+586.032+200.219+583.906C199.58+581.127+198.909+578.369+198.344+575.562C197.755+572.644+197.258+569.697+196.75+566.75C196.353+564.451+195.91+562.16+195.563+559.844C195.198+557.414+194.966+554.947+194.656+552.5C194.298+549.666+193.877+546.856+193.594+544C193.273+540.772+193.068+537.505+192.844+534.25C192.707+532.257+192.507+530.284+192.406+528.281C192.136+522.884+192+517.465+192+512C192+506.535+192.136+501.116+192.406+495.719C192.507+493.716+192.707+491.743+192.844+489.75C193.068+486.495+193.273+483.228+193.594+480C193.877+477.144+194.298+474.334+194.656+471.5C194.966+469.053+195.198+466.586+195.563+464.156C195.91+461.84+196.353+459.549+196.75+457.25C197.258+454.303+197.755+451.356+198.344+448.438C198.909+445.631+199.58+442.873+200.219+440.094C200.707+437.968+201.157+435.828+201.688+433.719C202.406+430.863+203.205+428.044+204+425.219C204.64+422.944+205.249+420.66+205.938+418.406C206.81+415.549+207.769+412.729+208.719+409.906C209.368+407.978+210.003+406.037+210.688+404.125C211.62+401.52+212.627+398.949+213.625+396.375C214.578+393.918+215.52+391.459+216.531+389.031C217.328+387.119+218.167+385.237+219+383.344C220.235+380.536+221.469+377.733+222.781+374.969C223.709+373.014+224.69+371.089+225.656+369.156C226.924+366.621+228.199+364.09+229.531+361.594C230.654+359.489+231.832+357.42+233+355.344C234.303+353.029+235.611+350.716+236.969+348.438C238.215+346.346+239.489+344.279+240.781+342.219C242.249+339.88+243.724+337.548+245.25+335.25C246.593+333.227+247.987+331.24+249.375+329.25C250.691+327.362+252.019+325.483+253.375+323.625C255.042+321.34+256.743+319.082+258.469+316.844C259.893+314.996+261.318+313.159+262.781+311.344C264.533+309.171+266.318+307.032+268.125+304.906C269.547+303.234+270.982+301.58+272.438+299.938C274.248+297.894+276.076+295.871+277.938+293.875C279.521+292.177+281.131+290.507+282.75+288.844C284.635+286.907+286.535+284.982+288.469+283.094C290.186+281.416+291.933+279.764+293.688+278.125C295.687+276.257+297.703+274.41+299.75+272.594C301.274+271.242+302.826+269.917+304.375+268.594C306.687+266.619+309.006+264.659+311.375+262.75C312.941+261.488+314.535+260.264+316.125+259.031C318.528+257.168+320.949+255.327+323.406+253.531C325.139+252.265+326.897+251.045+328.656+249.812C330.871+248.261+333.089+246.715+335.344+245.219C337.233+243.966+339.146+242.745+341.063+241.531C343.6+239.924+346.134+238.318+348.719+236.781C350.377+235.795+352.072+234.863+353.75+233.906C356.378+232.407+359.014+230.926+361.688+229.5C363.817+228.365+365.968+227.276+368.125+226.188C370.357+225.061+372.582+223.919+374.844+222.844C377.379+221.639+379.959+220.514+382.531+219.375C384.677+218.424+386.798+217.436+388.969+216.531C391.052+215.663+393.175+214.888+395.281+214.062C398.146+212.939+401.002+211.792+403.906+210.75C405.35+210.232+406.828+209.779+408.281+209.281C411.599+208.145+414.916+206.998+418.281+205.969C419.989+205.446+421.718+204.994+423.438+204.5C426.788+203.537+430.137+202.575+433.531+201.719C434.532+201.466+435.558+201.274+436.563+201.031C440.474+200.086+444.378+199.144+448.344+198.344C451.536+197.7+454.775+197.173+458+196.625C459.845+196.311+461.676+195.938+463.531+195.656C468.085+194.964+472.667+194.404+477.281+193.906C477.952+193.834+478.609+193.725+479.281+193.656C481.463+193.435+483.681+193.334+485.875+193.156C488.518+192.942+491.152+192.68+493.813+192.531ZM530.188+192.531C532.848+192.68+535.482+192.942+538.125+193.156C540.32+193.334+542.536+193.435+544.719+193.656C545.391+193.724+546.048+193.834+546.719+193.906C551.333+194.404+555.915+194.964+560.469+195.656C562.325+195.938+564.154+196.311+566+196.625C569.225+197.173+572.464+197.7+575.656+198.344C579.622+199.144+583.526+200.086+587.438+201.031C588.444+201.275+589.466+201.466+590.469+201.719C593.863+202.575+597.212+203.537+600.563+204.5C602.282+204.994+604.011+205.446+605.719+205.969C609.084+206.998+612.401+208.145+615.719+209.281C617.172+209.779+618.65+210.232+620.094+210.75C622.998+211.792+625.854+212.939+628.719+214.062C630.825+214.888+632.948+215.663+635.031+216.531C637.202+217.436+639.323+218.424+641.469+219.375C644.041+220.514+646.621+221.639+649.156+222.844C651.418+223.919+653.643+225.061+655.875+226.188C658.032+227.276+660.183+228.365+662.313+229.5C664.986+230.926+667.622+232.407+670.25+233.906C671.928+234.863+673.623+235.795+675.281+236.781C677.866+238.318+680.4+239.924+682.938+241.531C684.854+242.745+686.767+243.966+688.656+245.219C690.911+246.715+693.129+248.261+695.344+249.812C697.103+251.045+698.861+252.265+700.594+253.531C703.051+255.327+705.472+257.168+707.875+259.031C709.465+260.264+711.059+261.488+712.625+262.75C714.994+264.659+717.313+266.619+719.625+268.594C721.174+269.917+722.726+271.242+724.25+272.594C726.297+274.41+728.313+276.257+730.313+278.125C732.067+279.764+733.814+281.416+735.531+283.094C737.465+284.982+739.365+286.907+741.25+288.844C742.869+290.507+744.479+292.177+746.063+293.875C747.924+295.871+749.752+297.894+751.563+299.938C753.018+301.58+754.453+303.234+755.875+304.906C757.682+307.032+759.467+309.171+761.219+311.344C762.682+313.159+764.107+314.996+765.531+316.844C767.257+319.082+768.958+321.34+770.625+323.625C771.981+325.483+773.309+327.362+774.625+329.25C776.013+331.24+777.407+333.227+778.75+335.25C780.276+337.548+781.751+339.88+783.219+342.219C784.511+344.279+785.785+346.346+787.031+348.438C788.389+350.716+789.697+353.029+791+355.344C792.168+357.42+793.346+359.489+794.469+361.594C795.801+364.09+797.076+366.621+798.344+369.156C799.31+371.089+800.291+373.014+801.219+374.969C802.531+377.733+803.765+380.536+805+383.344C805.833+385.237+806.672+387.119+807.469+389.031C808.48+391.459+809.422+393.918+810.375+396.375C811.373+398.949+812.38+401.52+813.313+404.125C813.997+406.037+814.632+407.978+815.281+409.906C816.231+412.729+817.19+415.549+818.063+418.406C818.751+420.66+819.36+422.944+820+425.219C820.795+428.044+821.594+430.863+822.313+433.719C822.843+435.828+823.293+437.968+823.781+440.094C824.42+442.873+825.091+445.631+825.656+448.438C826.245+451.356+826.742+454.303+827.25+457.25C827.647+459.549+828.09+461.84+828.438+464.156C828.802+466.586+829.034+469.053+829.344+471.5C829.702+474.334+830.123+477.144+830.406+480C830.727+483.229+830.932+486.493+831.156+489.75C831.293+491.742+831.493+493.717+831.594+495.719C831.864+501.116+832+506.535+832+512C832+517.465+831.864+522.884+831.594+528.281C831.493+530.283+831.293+532.258+831.156+534.25C830.932+537.507+830.727+540.771+830.406+544C830.123+546.856+829.702+549.666+829.344+552.5C829.034+554.947+828.802+557.414+828.438+559.844C828.09+562.16+827.647+564.451+827.25+566.75C826.742+569.697+826.245+572.644+825.656+575.562C825.091+578.369+824.42+581.127+823.781+583.906C823.293+586.032+822.843+588.172+822.313+590.281C821.594+593.137+820.795+595.956+820+598.781C819.36+601.056+818.751+603.34+818.063+605.594C817.19+608.451+816.231+611.271+815.281+614.094C814.632+616.022+813.997+617.963+813.313+619.875C812.38+622.48+811.373+625.051+810.375+627.625C809.422+630.082+808.48+632.541+807.469+634.969C806.672+636.881+805.833+638.763+805+640.656C803.765+643.464+802.531+646.267+801.219+649.031C800.291+650.986+799.31+652.911+798.344+654.844C797.076+657.379+795.801+659.91+794.469+662.406C793.346+664.511+792.168+666.58+791+668.656C789.697+670.971+788.389+673.284+787.031+675.562C785.785+677.654+784.511+679.721+783.219+681.781C781.751+684.12+780.276+686.452+778.75+688.75C777.407+690.773+776.013+692.76+774.625+694.75C773.309+696.638+771.981+698.517+770.625+700.375C768.958+702.66+767.257+704.918+765.531+707.156C764.107+709.004+762.682+710.841+761.219+712.656C759.467+714.829+757.682+716.968+755.875+719.094C754.453+720.766+753.018+722.42+751.563+724.062C749.752+726.106+747.924+728.129+746.063+730.125C744.479+731.823+742.869+733.493+741.25+735.156C739.365+737.093+737.465+739.018+735.531+740.906C733.814+742.584+732.067+744.236+730.313+745.875C728.313+747.743+726.297+749.59+724.25+751.406C722.726+752.758+721.174+754.083+719.625+755.406C717.313+757.381+714.994+759.341+712.625+761.25C711.059+762.512+709.465+763.736+707.875+764.969C705.472+766.832+703.051+768.673+700.594+770.469C698.861+771.735+697.103+772.955+695.344+774.188C693.129+775.739+690.911+777.285+688.656+778.781C686.767+780.034+684.854+781.255+682.938+782.469C680.4+784.076+677.866+785.682+675.281+787.219C673.623+788.205+671.928+789.137+670.25+790.094C667.622+791.593+664.986+793.074+662.313+794.5C660.183+795.635+658.032+796.724+655.875+797.812C653.643+798.939+651.418+800.081+649.156+801.156C646.621+802.361+644.041+803.486+641.469+804.625C639.323+805.576+637.202+806.564+635.031+807.469C632.948+808.337+630.825+809.112+628.719+809.938C625.854+811.061+622.998+812.208+620.094+813.25C618.65+813.768+617.172+814.221+615.719+814.719C612.401+815.855+609.084+817.002+605.719+818.031C604.011+818.554+602.282+819.006+600.563+819.5C597.212+820.463+593.863+821.425+590.469+822.281C589.466+822.534+588.444+822.725+587.438+822.969C583.526+823.914+579.622+824.856+575.656+825.656C572.464+826.3+569.225+826.827+566+827.375C564.154+827.689+562.325+828.062+560.469+828.344C555.915+829.036+551.333+829.596+546.719+830.094C546.048+830.166+545.391+830.276+544.719+830.344C542.536+830.565+540.32+830.666+538.125+830.844C535.482+831.058+532.848+831.32+530.188+831.469C712.236+822.965+861.085+687.753+890.594+512C861.085+336.247+712.236+201.035+530.188+192.531Z" opacity="1" fill="url(#LinearGradient_7)"/>
</svg>
