<?xml version="1.0" encoding="UTF-8" standalone="no"?>
<!-- Created with Inkscape (http://www.inkscape.org/) -->

<svg
   xmlns:dc="http://purl.org/dc/elements/1.1/"
   xmlns:cc="http://creativecommons.org/ns#"
   xmlns:rdf="http://www.w3.org/1999/02/22-rdf-syntax-ns#"
   xmlns:svg="http://www.w3.org/2000/svg"
   xmlns="http://www.w3.org/2000/svg"
   xmlns:xlink="http://www.w3.org/1999/xlink"
   xmlns:sodipodi="http://sodipodi.sourceforge.net/DTD/sodipodi-0.dtd"
   xmlns:inkscape="http://www.inkscape.org/namespaces/inkscape"
   id="svg4000"
   version="1.1"
   inkscape:version="0.91 r13725"
   width="190"
   height="190"
   viewBox="0 0 190 190"
   sodipodi:docname="afternoon.svg">
  <metadata
     id="metadata4006">
    <rdf:RDF>
      <cc:Work
         rdf:about="">
        <dc:format>image/svg+xml</dc:format>
        <dc:type
           rdf:resource="http://purl.org/dc/dcmitype/StillImage" />
        <dc:title />
      </cc:Work>
    </rdf:RDF>
  </metadata>
  <defs
     id="defs4004">
    <linearGradient
       inkscape:collect="always"
       id="linearGradient4157">
      <stop
         style="stop-color:#facd00;stop-opacity:1;"
         offset="0"
         id="stop4159" />
      <stop
         style="stop-color:#facd00;stop-opacity:0;"
         offset="1"
         id="stop4161" />
    </linearGradient>
    <linearGradient
       inkscape:collect="always"
       xlink:href="#linearGradient4157"
       id="linearGradient4163"
       x1="0"
       y1="0"
       x2="190"
       y2="190"
       gradientUnits="userSpaceOnUse" />
  </defs>
  <sodipodi:namedview
     pagecolor="#ffffff"
     bordercolor="#666666"
     borderopacity="1"
     objecttolerance="10"
     gridtolerance="10"
     guidetolerance="10"
     inkscape:pageopacity="0"
     inkscape:pageshadow="2"
     inkscape:window-width="1970"
     inkscape:window-height="1129"
     id="namedview4002"
     showgrid="false"
     inkscape:snap-object-midpoints="true"
     inkscape:snap-page="false"
     inkscape:zoom="2.8284272"
     inkscape:cx="-36.615247"
     inkscape:cy="40.552687"
     inkscape:window-x="70"
     inkscape:window-y="-8"
     inkscape:window-maximized="1"
     inkscape:current-layer="layer2" />
  <g
     inkscape:groupmode="layer"
     id="layer3"
     inkscape:label="Background"
     style="display:inline">
    <rect
       style="opacity:1;fill:#ffec47;fill-opacity:1;stroke:none;stroke-width:22.74799919;stroke-miterlimit:4;stroke-dasharray:none;stroke-opacity:1"
       id="rect4869"
       width="190"
       height="190"
       x="0"
       y="0" />
  </g>
  <g
     inkscape:groupmode="layer"
     id="layer4"
     inkscape:label="Gradient"
     style="display:inline">
    <rect
       style="display:inline;opacity:1;fill:url(#linearGradient4163);fill-opacity:1;stroke:none;stroke-width:22.74799919;stroke-miterlimit:4;stroke-dasharray:none;stroke-opacity:1"
       id="rect4869-9"
       width="190"
       height="190"
       x="0"
       y="1.9073486e-006" />
  </g>
  <g
     inkscape:groupmode="layer"
     id="layer2"
     inkscape:label="Circle"
     style="display:inline;opacity:1">
    <path
       inkscape:connector-curvature="0"
       id="path4304"
       d="m 112.50007,19.900003 c -1.45002,0 -2.50002,1.1 -2.50002,2.5 l 0,10.900046 c 0,1.399947 1.05,2.499954 2.50002,2.499954 1.39994,0 2.49994,-1.100007 2.49994,-2.499954 l 0,-10.900046 c 0,-1.4 -1.1,-2.5 -2.49994,-2.5 z m 26.55001,10.950026 c -0.64999,0 -1.3,0.25 -1.80001,0.750007 l -7.65,7.75 c -0.94999,1.000007 -1.05,2.50002 0,3.54996 0.95002,0.950007 2.59996,0.950007 3.54998,0 l 7.59986,-7.75 c 1,-0.950007 1.05002,-2.449953 0,-3.54996 -0.45,-0.500007 -1.05,-0.750007 -1.69983,-0.750007 z m -53.05003,0.09999 c -0.65001,0 -1.30002,0.200006 -1.75002,0.650006 -1.05001,1.050007 -1.00001,2.599954 0,3.54996 l 7.7,7.75 c 0.5,0.500007 1.10001,0.700007 1.75001,0.700007 0.60001,0 1.20001,-0.200013 1.79995,-0.700007 0.90001,-1.04994 0.90001,-2.649953 0,-3.54996 l -7.75,-7.75 c -0.45,-0.450006 -1.1,-0.650006 -1.74994,-0.650006 z m 26.50002,9.500013 c -5.40005,0 -9.95002,1.900013 -13.80005,5.69998 -3.74997,3.800033 -5.64998,8.35 -5.64998,13.750047 0,5.349979 1.85001,9.949949 5.64998,13.749989 3.80003,3.80002 8.4,5.64997 13.80005,5.64997 5.34997,0 9.89994,-1.89995 13.69998,-5.64997 3.80004,-3.80004 5.69998,-8.40001 5.69998,-13.749989 0,-5.400047 -1.89994,-9.950014 -5.69998,-13.750047 -3.80004,-3.799967 -8.35001,-5.69998 -13.69998,-5.69998 z M 75.000001,57.400043 c -1.399998,0 -2.500001,1.050006 -2.500001,2.50002 0,1.399949 1.100003,2.499959 2.500001,2.499959 l 10.900049,0 c 1.39994,0 2.49995,-1.10001 2.49995,-2.499959 0,-1.450014 -1.10001,-2.50002 -2.49995,-2.50002 l -10.900049,0 z m 64.199889,0 c -1.3998,0 -2.49982,1.050006 -2.49982,2.50002 0,1.399949 1.10002,2.499959 2.49982,2.499959 l 10.8001,0 c 1.40002,0 2.50001,-1.10001 2.50001,-2.499959 0,-1.450014 -1.09999,-2.50002 -2.50001,-2.50002 l -10.8001,0 z M 93.65005,76.200072 c -0.65001,0 -1.25002,0.3 -1.80002,0.8 l -7.6,7.65 c -1.05001,1 -1.05001,2.54982 0,3.59983 0.95001,0.95001 2.54996,0.95001 3.49996,0 l 7.75,-7.69987 c 0.95001,-1 0.90001,-2.64995 0,-3.54996 -0.54994,-0.5 -1.19994,-0.8 -1.84994,-0.8 z m 37.64998,0 c -0.59994,0 -1.24995,0.3 -1.69996,0.8 -1.05,0.90001 -0.94999,2.54996 0,3.54996 l 7.65,7.59987 c 0.75,1.00001 2.74984,1.00001 3.49984,0 1.05002,-0.90001 1.05002,-2.49983 0,-3.49983 l -7.59986,-7.65 c -0.55002,-0.5 -1.20001,-0.8 -1.85002,-0.8 z m -18.79996,7.89999 c -1.45002,0 -2.50002,1.10001 -2.50002,2.49983 l 0,10.900078 c 0,1.30002 1.05,2.50003 2.50002,2.50003 1.39994,0 2.49994,-1.20001 2.49994,-2.60003 l 0,-10.800078 c 0,-1.39982 -1.1,-2.49983 -2.49994,-2.49983 z"
       style="display:inline;fill:#ffffff;fill-opacity:1;fill-rule:nonzero;stroke:none" />
    <path
       inkscape:connector-curvature="0"
       id="path4326"
       d="m 20,164 150,0 0,6 -150,0 z"
       style="display:inline;opacity:1;fill:#ffffff;fill-opacity:1;fill-rule:nonzero;stroke:none" />
  </g>
  <g
     inkscape:groupmode="layer"
     id="layer5"
     inkscape:label="content"
     style="display:inline;opacity:1" />
</svg>
