<?xml version="1.0" encoding="UTF-8" standalone="no"?>
<!-- Created with Inkscape (http://www.inkscape.org/) -->

<svg
   xmlns:dc="http://purl.org/dc/elements/1.1/"
   xmlns:cc="http://creativecommons.org/ns#"
   xmlns:rdf="http://www.w3.org/1999/02/22-rdf-syntax-ns#"
   xmlns:svg="http://www.w3.org/2000/svg"
   xmlns="http://www.w3.org/2000/svg"
   xmlns:xlink="http://www.w3.org/1999/xlink"
   xmlns:sodipodi="http://sodipodi.sourceforge.net/DTD/sodipodi-0.dtd"
   xmlns:inkscape="http://www.inkscape.org/namespaces/inkscape"
   id="svg4000"
   version="1.1"
   inkscape:version="0.91 r13725"
   width="190"
   height="190"
   viewBox="0 0 190 190"
   sodipodi:docname="evening.svg">
  <metadata
     id="metadata4006">
    <rdf:RDF>
      <cc:Work
         rdf:about="">
        <dc:format>image/svg+xml</dc:format>
        <dc:type
           rdf:resource="http://purl.org/dc/dcmitype/StillImage" />
        <dc:title />
      </cc:Work>
    </rdf:RDF>
  </metadata>
  <defs
     id="defs4004">
    <linearGradient
       inkscape:collect="always"
       id="linearGradient4161">
      <stop
         style="stop-color:#ff9600;stop-opacity:1;"
         offset="0"
         id="stop4163" />
      <stop
         style="stop-color:#ff9600;stop-opacity:0;"
         offset="1"
         id="stop4165" />
    </linearGradient>
    <linearGradient
       inkscape:collect="always"
       xlink:href="#linearGradient4161"
       id="linearGradient4167"
       x1="0.088388339"
       y1="0.2476905"
       x2="191.06067"
       y2="191.16653"
       gradientUnits="userSpaceOnUse" />
    <pattern
       y="0"
       x="0"
       height="6"
       width="6"
       patternUnits="userSpaceOnUse"
       id="EMFhbasepattern" />
    <pattern
       y="0"
       x="0"
       height="6"
       width="6"
       patternUnits="userSpaceOnUse"
       id="EMFhbasepattern-1" />
    <pattern
       y="0"
       x="0"
       height="6"
       width="6"
       patternUnits="userSpaceOnUse"
       id="EMFhbasepattern-0" />
  </defs>
  <sodipodi:namedview
     pagecolor="#ffffff"
     bordercolor="#666666"
     borderopacity="1"
     objecttolerance="10"
     gridtolerance="10"
     guidetolerance="10"
     inkscape:pageopacity="0"
     inkscape:pageshadow="2"
     inkscape:window-width="1970"
     inkscape:window-height="1129"
     id="namedview4002"
     showgrid="false"
     inkscape:snap-object-midpoints="true"
     inkscape:snap-page="false"
     inkscape:zoom="4"
     inkscape:cx="93.96287"
     inkscape:cy="102.76552"
     inkscape:window-x="70"
     inkscape:window-y="-8"
     inkscape:window-maximized="1"
     inkscape:current-layer="layer2" />
  <g
     inkscape:groupmode="layer"
     id="layer3"
     inkscape:label="Background"
     style="display:inline">
    <rect
       style="opacity:1;fill:#ffcc00;fill-opacity:1;stroke:none;stroke-width:22.74799919;stroke-miterlimit:4;stroke-dasharray:none;stroke-opacity:1"
       id="rect4869"
       width="190"
       height="190"
       x="0"
       y="0" />
    <rect
       style="display:inline;opacity:1;fill:url(#linearGradient4167);fill-opacity:1;stroke:none;stroke-width:22.74799919;stroke-miterlimit:4;stroke-dasharray:none;stroke-opacity:1"
       id="rect4869-6"
       width="190"
       height="190"
       x="0"
       y="0" />
  </g>
  <g
     inkscape:groupmode="layer"
     id="layer4"
     inkscape:label="Gradient"
     style="display:inline" />
  <g
     inkscape:groupmode="layer"
     id="layer2"
     inkscape:label="Circle"
     style="display:inline;opacity:1">
    <path
       inkscape:connector-curvature="0"
       id="path4344"
       d="m 20,163.99997 150,0 0,6.00003 -150,0 z"
       style="fill:#ffffff;fill-opacity:1;fill-rule:nonzero;stroke:none" />
    <path
       inkscape:connector-curvature="0"
       id="path4346"
       d="m 130.00006,119.45006 c -1.45001,0 -2.50001,1.10001 -2.50001,2.50001 l 0,10.90003 c 0,1.39995 1.05,2.49997 2.50001,2.49997 1.39995,0 2.49996,-1.10002 2.49996,-2.49997 l 0,-10.90003 c 0,-1.4 -1.10001,-2.50001 -2.49996,-2.50001 z m 26.55003,10.95004 c -0.65001,0 -1.30001,0.24999 -1.80001,0.75001 l -7.65,7.74998 c -0.95001,1 -1.05001,2.50001 0,3.54998 0.95001,0.94999 2.59995,0.94999 3.54996,0 l 7.59986,-7.75001 c 1.00001,-0.95001 1.05001,-2.44996 0,-3.54995 -0.45,-0.50002 -1.05001,-0.75001 -1.69981,-0.75001 z M 103.50005,130.5 c -0.65001,0 -1.30002,0.20008 -1.75002,0.65 -1.05001,1.05001 -1.00001,2.59994 0,3.54996 l 7.7,7.75001 c 0.5,0.49999 1.10001,0.69999 1.75001,0.69999 0.60001,0 1.20001,-0.20008 1.79995,-0.69999 0.90001,-1.04996 0.90001,-2.64997 0,-3.54998 l -7.75,-7.74999 c -0.45,-0.45 -1.10001,-0.65 -1.74994,-0.65 z m 26.50001,9.50001 c -5.40004,0 -9.95001,1.9 -13.80004,5.69998 -3.74997,3.80004 -5.64998,8.34999 -5.64998,13.75003 0,0.20008 0,0.35002 0,0.54995 l 38.84999,0 c 0,-0.19984 0,-0.34994 0,-0.54995 0,-5.40004 -1.89995,-9.94999 -5.69998,-13.75003 -3.80003,-3.79998 -8.35,-5.69998 -13.69999,-5.69998 z m -37.500059,16.95 c -1.399998,0 -2.500001,1.05001 -2.500001,2.50001 0,0.20008 0.05001,0.40002 0.05001,0.54995 l 15.8,0 c 0,-0.15 0.05,-0.34994 0.05,-0.54995 0,-1.45 -1.10001,-2.50001 -2.49995,-2.50001 l -10.900049,0 z m 64.199889,0 c -1.39981,0 -2.49982,1.05001 -2.49982,2.50001 0,0.20008 0,0.40002 0.05,0.54995 l 15.69993,0 c 0,-0.15 0.05,-0.34994 0.05,-0.54995 0,-1.45 -1.1,-2.50001 -2.50002,-2.50001 l -10.80009,0 z"
       style="fill:#ffffff;fill-opacity:1;fill-rule:nonzero;stroke:none" />
  </g>
  <g
     inkscape:groupmode="layer"
     id="layer5"
     inkscape:label="content"
     style="display:inline;opacity:1" />
</svg>
