<?xml version="1.0" encoding="UTF-8" standalone="no"?>
<!-- Created with Inkscape (http://www.inkscape.org/) -->

<svg
   xmlns:dc="http://purl.org/dc/elements/1.1/"
   xmlns:cc="http://creativecommons.org/ns#"
   xmlns:rdf="http://www.w3.org/1999/02/22-rdf-syntax-ns#"
   xmlns:svg="http://www.w3.org/2000/svg"
   xmlns="http://www.w3.org/2000/svg"
   xmlns:xlink="http://www.w3.org/1999/xlink"
   xmlns:sodipodi="http://sodipodi.sourceforge.net/DTD/sodipodi-0.dtd"
   xmlns:inkscape="http://www.inkscape.org/namespaces/inkscape"
   id="svg4000"
   version="1.1"
   inkscape:version="0.91 r13725"
   width="190"
   height="190"
   viewBox="0 0 190 190"
   sodipodi:docname="forenoon.svg">
  <metadata
     id="metadata4006">
    <rdf:RDF>
      <cc:Work
         rdf:about="">
        <dc:format>image/svg+xml</dc:format>
        <dc:type
           rdf:resource="http://purl.org/dc/dcmitype/StillImage" />
        <dc:title />
      </cc:Work>
    </rdf:RDF>
  </metadata>
  <defs
     id="defs4004">
    <linearGradient
       inkscape:collect="always"
       id="linearGradient4246">
      <stop
         style="stop-color:#50bfd0;stop-opacity:1;"
         offset="0"
         id="stop4248" />
      <stop
         style="stop-color:#50bfd0;stop-opacity:0;"
         offset="1"
         id="stop4250" />
    </linearGradient>
    <linearGradient
       inkscape:collect="always"
       xlink:href="#linearGradient4246"
       id="linearGradient4252"
       x1="-3.1819806"
       y1="-0.81296968"
       x2="191.76776"
       y2="191.87363"
       gradientUnits="userSpaceOnUse" />
    <pattern
       y="0"
       x="0"
       height="6"
       width="6"
       patternUnits="userSpaceOnUse"
       id="EMFhbasepattern" />
    <pattern
       y="0"
       x="0"
       height="6"
       width="6"
       patternUnits="userSpaceOnUse"
       id="EMFhbasepattern-2" />
  </defs>
  <sodipodi:namedview
     pagecolor="#ffffff"
     bordercolor="#666666"
     borderopacity="1"
     objecttolerance="10"
     gridtolerance="10"
     guidetolerance="10"
     inkscape:pageopacity="0"
     inkscape:pageshadow="2"
     inkscape:window-width="1970"
     inkscape:window-height="1129"
     id="namedview4002"
     showgrid="false"
     inkscape:snap-object-midpoints="true"
     inkscape:snap-page="false"
     inkscape:zoom="2.8284271"
     inkscape:cx="-140.78415"
     inkscape:cy="104.56145"
     inkscape:window-x="70"
     inkscape:window-y="-8"
     inkscape:window-maximized="1"
     inkscape:current-layer="layer4" />
  <g
     inkscape:groupmode="layer"
     id="layer3"
     inkscape:label="Background"
     style="display:inline">
    <rect
       style="opacity:1;fill:#a6f3ff;fill-opacity:1;stroke:none;stroke-width:22.74799919;stroke-miterlimit:4;stroke-dasharray:none;stroke-opacity:1"
       id="rect4869"
       width="190"
       height="190"
       x="0"
       y="0" />
  </g>
  <g
     inkscape:groupmode="layer"
     id="layer4"
     inkscape:label="Gradient"
     style="display:inline">
    <rect
       style="display:inline;opacity:1;fill:url(#linearGradient4252);fill-opacity:1;stroke:none;stroke-width:22.74799919;stroke-miterlimit:4;stroke-dasharray:none;stroke-opacity:1"
       id="rect4869-9"
       width="190"
       height="190"
       x="0"
       y="0" />
    <path
       inkscape:connector-curvature="0"
       id="path4304"
       d="m 77.500068,19.900004 c -1.450013,0 -2.50002,1.1 -2.50002,2.5 l 0,10.90004 c 0,1.399947 1.050007,2.49996 2.50002,2.49996 1.399947,0 2.499947,-1.100013 2.499947,-2.49996 l 0,-10.90004 c 0,-1.4 -1.1,-2.5 -2.499947,-2.5 z m 26.550012,10.95002 c -0.64999,0 -1.3,0.250007 -1.80001,0.750007 l -7.649997,7.75 c -0.949993,1.000006 -1.050006,2.50002 0,3.549966 0.950014,0.950007 2.59996,0.950007 3.549974,0 l 7.599863,-7.75 c 1,-0.950013 1.05002,-2.44996 0,-3.549966 -0.45,-0.5 -1.05,-0.750007 -1.69983,-0.750007 z m -53.050032,0.09999 c -0.650007,0 -1.300013,0.200014 -1.750015,0.650007 -1.050008,1.050013 -1.00001,2.599953 0,3.549967 l 7.699995,7.749993 c 0.500007,0.500007 1.100013,0.700007 1.750013,0.700007 0.600007,0 1.200014,-0.200007 1.799954,-0.700007 0.900006,-1.04994 0.900006,-2.649953 0,-3.54996 l -7.75,-7.75 c -0.450007,-0.45 -1.100007,-0.650007 -1.749947,-0.650007 z m 26.50002,9.50002 c -5.400047,0 -9.950013,1.900014 -13.800047,5.699974 -3.749966,3.800033 -5.64998,8.350006 -5.64998,13.750053 0,5.349979 1.850014,9.949959 5.64998,13.749979 3.800034,3.80003 8.4,5.64998 13.800047,5.64998 5.349974,0 9.899947,-1.89995 13.699985,-5.64998 3.80004,-3.80002 5.69998,-8.4 5.69998,-13.749979 0,-5.400047 -1.89994,-9.95002 -5.69998,-13.750053 -3.800038,-3.79996 -8.350011,-5.699974 -13.699985,-5.699974 z m -37.500067,16.95001 c -1.399998,0 -2.500001,1.050007 -2.500001,2.50002 0,1.399946 1.100003,2.499956 2.500001,2.499956 l 10.900047,0 c 1.39994,0 2.499953,-1.10001 2.499953,-2.499956 0,-1.450013 -1.100013,-2.50002 -2.499953,-2.50002 l -10.900047,0 z m 64.199889,0 c -1.3998,0 -2.49982,1.050007 -2.49982,2.50002 0,1.399946 1.10002,2.499956 2.49982,2.499956 l 10.8001,0 c 1.40002,0 2.50001,-1.10001 2.50001,-2.499956 0,-1.450013 -1.09999,-2.50002 -2.50001,-2.50002 l -10.8001,0 z M 58.650048,76.20006 c -0.650007,0 -1.250013,0.30001 -1.80002,0.80001 l -7.599995,7.65 c -1.050008,1 -1.050008,2.54982 0,3.59983 0.950008,0.95001 2.549955,0.95001 3.499962,0 l 7.75,-7.69987 c 0.950006,-1 0.900006,-2.64995 0,-3.54996 -0.54994,-0.5 -1.199947,-0.80001 -1.849947,-0.80001 z m 37.649979,0 c -0.599934,0 -1.249947,0.30001 -1.699954,0.80001 -1.050006,0.90001 -0.949993,2.54996 0,3.54996 l 7.649997,7.59987 c 0.75,1.00001 2.74984,1.00001 3.49984,0 1.05002,-0.90001 1.05002,-2.49983 0,-3.49983 l -7.599863,-7.65 c -0.55002,-0.5 -1.200007,-0.80001 -1.85002,-0.80001 z m -18.799959,7.9 c -1.450013,0 -2.50002,1.10001 -2.50002,2.49983 l 0,10.90008 c 0,1.30002 1.050007,2.50003 2.50002,2.50003 1.399947,0 2.499947,-1.20001 2.499947,-2.60003 l 0,-10.80008 c 0,-1.39982 -1.1,-2.49983 -2.499947,-2.49983 z"
       style="fill:#ffffff;fill-opacity:1;fill-rule:nonzero;stroke:none" />
  </g>
  <g
     inkscape:groupmode="layer"
     id="layer2"
     inkscape:label="Circle"
     style="display:inline;opacity:1">
    <path
       inkscape:connector-curvature="0"
       id="path4326"
       d="m 20,164 150,0 0,6 -150,0 z"
       style="fill:#ffffff;fill-opacity:1;fill-rule:nonzero;stroke:none" />
  </g>
  <g
     inkscape:groupmode="layer"
     id="layer5"
     inkscape:label="Content"
     style="display:inline;opacity:1" />
</svg>
