<svg style="fill-rule:evenodd;" xmlns="http://www.w3.org/2000/svg" version="1.1" viewBox="0 0 306 306">
<path d="M0.950639+4.53286e-06L305.049+4.53286e-06C305.574+4.53286e-06+306+0.372598+306+0.832216L306+305.168C306+305.627+305.574+306+305.049+306L0.950639+306C0.425619+306+4.97292e-06+305.627+4.97292e-06+305.168L4.97292e-06+0.832216C4.97292e-06+0.372598+0.425619+4.53286e-06+0.950639+4.53286e-06Z" opacity="1" fill="#434343"/>
<path d="M153+42.5C91.9725+42.5+42.5+91.9725+42.5+153C42.5+214.027+91.9725+263.5+153+263.5C214.027+263.5+263.5+214.027+263.5+153C263.5+91.9725+214.027+42.5+153+42.5ZM153+33.5C218.998+33.5+272.5+87.002+272.5+153C272.5+218.998+218.998+272.5+153+272.5C87.002+272.5+33.5+218.998+33.5+153C33.5+87.002+87.002+33.5+153+33.5Z" opacity="1" fill="#bcbcbc"/>
<path d="M126.759+110.792C103.447+110.793+84.5406+129.668+84.5406+152.98C84.5407+176.292+103.447+195.199+126.759+195.199C126.835+195.199+126.903+195.168+126.978+195.167C126.982+195.168+126.974+195.199+126.978+195.199L178.728+195.199C178.732+195.199+178.724+195.168+178.728+195.167C178.803+195.168+178.872+195.199+178.947+195.199C202.259+195.199+221.134+176.292+221.134+152.98C221.134+129.668+202.259+110.792+178.947+110.792C178.872+110.792+178.803+110.823+178.728+110.824C178.724+110.823+178.732+110.793+178.728+110.792L126.978+110.792C126.974+110.792+126.982+110.823+126.978+110.824C126.903+110.823+126.835+110.792+126.759+110.792ZM178.916+119.792C197.257+119.792+212.134+134.67+212.134+153.011C212.134+171.353+197.257+186.199+178.916+186.199C160.574+186.199+145.697+171.353+145.697+153.011C145.697+134.67+160.574+119.793+178.916+119.792Z" opacity="1" fill="#f9c100"/>
<path d="M154.721+153.001C154.721+139.63+165.56+128.791+178.931+128.791C192.301+128.791+203.141+139.63+203.141+153.001C203.141+166.372+192.301+177.211+178.931+177.211C165.56+177.211+154.721+166.372+154.721+153.001Z" opacity="1" fill="#bcbcbc"/>
</svg>
